<?xml version="1.0" encoding="UTF-8" standalone="no"?>
<!DOCTYPE svg PUBLIC "-//W3C//DTD SVG 1.1//EN" "http://www.w3.org/Graphics/SVG/1.1/DTD/svg11.dtd">
<svg width="100%" height="100%" viewBox="0 0 304 227" version="1.1" xmlns="http://www.w3.org/2000/svg" xmlns:xlink="http://www.w3.org/1999/xlink" xml:space="preserve" xmlns:serif="http://www.serif.com/" style="fill-rule:evenodd;clip-rule:evenodd;">
    <path d="M303,167C303,163.137 299.863,160 296,160L12,160C8.137,160 5,163.137 5,167L5,219C5,222.863 8.137,226 12,226L296,226C299.863,226 303,222.863 303,219L303,167Z" style="stroke:black;stroke-width:2px;"/>
    <path d="M299,163C299,159.137 295.863,156 292,156L8,156C4.137,156 1,159.137 1,163L1,215C1,218.863 4.137,222 8,222L292,222C295.863,222 299,218.863 299,215L299,163Z" style="fill:white;stroke:black;stroke-width:2px;"/>
    <path d="M16.946,170.203L16.946,183L14.318,183L14.318,170.203L16.946,170.203ZM24.399,180.372C24.399,180.19 24.347,180.026 24.241,179.88C24.136,179.733 23.94,179.599 23.652,179.476C23.371,179.347 22.964,179.229 22.431,179.124C21.95,179.019 21.502,178.887 21.086,178.729C20.676,178.564 20.318,178.368 20.014,178.14C19.715,177.911 19.481,177.642 19.311,177.331C19.141,177.015 19.056,176.654 19.056,176.25C19.056,175.852 19.141,175.477 19.311,175.125C19.486,174.773 19.735,174.463 20.058,174.193C20.386,173.918 20.784,173.704 21.253,173.552C21.728,173.394 22.261,173.314 22.853,173.314C23.679,173.314 24.388,173.446 24.98,173.71C25.577,173.974 26.034,174.337 26.351,174.8C26.673,175.257 26.834,175.778 26.834,176.364L24.303,176.364C24.303,176.118 24.25,175.898 24.145,175.705C24.045,175.506 23.887,175.351 23.67,175.239C23.459,175.122 23.184,175.063 22.844,175.063C22.563,175.063 22.319,175.113 22.114,175.213C21.909,175.307 21.751,175.436 21.64,175.6C21.534,175.758 21.481,175.934 21.481,176.127C21.481,176.273 21.511,176.405 21.569,176.522C21.634,176.634 21.736,176.736 21.877,176.83C22.018,176.924 22.199,177.012 22.422,177.094C22.65,177.17 22.932,177.24 23.266,177.305C23.951,177.445 24.564,177.63 25.103,177.858C25.642,178.081 26.069,178.386 26.386,178.772C26.702,179.153 26.86,179.654 26.86,180.275C26.86,180.697 26.767,181.084 26.579,181.436C26.392,181.787 26.122,182.095 25.77,182.358C25.419,182.616 24.997,182.818 24.505,182.965C24.019,183.105 23.471,183.176 22.861,183.176C21.977,183.176 21.227,183.018 20.611,182.701C20.002,182.385 19.539,181.983 19.223,181.497C18.912,181.005 18.757,180.501 18.757,179.985L21.156,179.985C21.168,180.331 21.256,180.609 21.42,180.82C21.59,181.031 21.804,181.184 22.062,181.277C22.325,181.371 22.609,181.418 22.914,181.418C23.242,181.418 23.515,181.374 23.731,181.286C23.948,181.192 24.112,181.069 24.224,180.917C24.341,180.759 24.399,180.577 24.399,180.372ZM33.637,180.855L33.637,176.619C33.637,176.314 33.587,176.054 33.487,175.837C33.388,175.614 33.232,175.441 33.022,175.318C32.816,175.195 32.55,175.134 32.222,175.134C31.94,175.134 31.697,175.184 31.492,175.283C31.287,175.377 31.129,175.515 31.018,175.696C30.906,175.872 30.851,176.08 30.851,176.32L28.319,176.32C28.319,175.916 28.413,175.532 28.601,175.169C28.788,174.806 29.061,174.486 29.418,174.211C29.775,173.93 30.2,173.71 30.692,173.552C31.19,173.394 31.747,173.314 32.362,173.314C33.101,173.314 33.757,173.438 34.331,173.684C34.905,173.93 35.356,174.299 35.685,174.791C36.019,175.283 36.186,175.898 36.186,176.637L36.186,180.706C36.186,181.228 36.218,181.655 36.282,181.989C36.347,182.317 36.44,182.604 36.564,182.851L36.564,183L34.006,183C33.883,182.742 33.789,182.42 33.725,182.033C33.666,181.641 33.637,181.248 33.637,180.855ZM33.971,177.208L33.988,178.641L32.573,178.641C32.239,178.641 31.949,178.679 31.703,178.755C31.457,178.831 31.255,178.939 31.097,179.08C30.939,179.215 30.821,179.373 30.745,179.555C30.675,179.736 30.64,179.936 30.64,180.152C30.64,180.369 30.69,180.565 30.789,180.741C30.889,180.911 31.032,181.046 31.22,181.146C31.407,181.239 31.627,181.286 31.879,181.286C32.26,181.286 32.591,181.21 32.872,181.058C33.153,180.905 33.37,180.718 33.523,180.495C33.681,180.272 33.763,180.062 33.769,179.862L34.437,180.935C34.343,181.175 34.214,181.424 34.05,181.682C33.892,181.939 33.69,182.183 33.443,182.411C33.197,182.634 32.901,182.818 32.556,182.965C32.21,183.105 31.8,183.176 31.325,183.176C30.722,183.176 30.174,183.056 29.682,182.815C29.195,182.569 28.809,182.232 28.522,181.805C28.24,181.371 28.1,180.879 28.1,180.328C28.1,179.83 28.193,179.388 28.381,179.001C28.568,178.614 28.844,178.289 29.207,178.025C29.576,177.756 30.036,177.554 30.587,177.419C31.138,177.278 31.776,177.208 32.503,177.208L33.971,177.208ZM38.137,169.5L40.668,169.5L40.668,180.82L40.413,183L38.137,183L38.137,169.5ZM46.689,178.148L46.689,178.333C46.689,179.042 46.612,179.692 46.46,180.284C46.314,180.876 46.085,181.389 45.774,181.822C45.464,182.25 45.077,182.584 44.614,182.824C44.157,183.059 43.618,183.176 42.997,183.176C42.417,183.176 41.913,183.059 41.485,182.824C41.064,182.59 40.709,182.259 40.422,181.831C40.135,181.403 39.903,180.902 39.728,180.328C39.552,179.754 39.42,179.127 39.332,178.447L39.332,178.043C39.42,177.363 39.552,176.736 39.728,176.162C39.903,175.588 40.135,175.087 40.422,174.659C40.709,174.231 41.064,173.9 41.485,173.666C41.907,173.432 42.405,173.314 42.98,173.314C43.606,173.314 44.151,173.435 44.614,173.675C45.083,173.909 45.47,174.243 45.774,174.677C46.085,175.104 46.314,175.614 46.46,176.206C46.612,176.792 46.689,177.439 46.689,178.148ZM44.157,178.333L44.157,178.148C44.157,177.762 44.128,177.398 44.069,177.059C44.017,176.713 43.923,176.411 43.788,176.153C43.653,175.89 43.469,175.682 43.234,175.529C43.006,175.377 42.71,175.301 42.347,175.301C42.001,175.301 41.708,175.359 41.468,175.477C41.228,175.594 41.028,175.758 40.87,175.969C40.718,176.18 40.603,176.432 40.527,176.725C40.451,177.012 40.404,177.328 40.387,177.674L40.387,178.825C40.404,179.288 40.481,179.698 40.615,180.056C40.756,180.407 40.967,180.686 41.248,180.891C41.535,181.09 41.907,181.189 42.364,181.189C42.722,181.189 43.018,181.119 43.252,180.979C43.486,180.838 43.668,180.639 43.797,180.381C43.932,180.123 44.025,179.821 44.078,179.476C44.131,179.124 44.157,178.743 44.157,178.333ZM52.639,183.176C51.9,183.176 51.238,183.059 50.652,182.824C50.066,182.584 49.568,182.253 49.158,181.831C48.754,181.409 48.443,180.92 48.227,180.363C48.01,179.801 47.901,179.203 47.901,178.57L47.901,178.219C47.901,177.498 48.004,176.839 48.209,176.241C48.414,175.644 48.707,175.125 49.088,174.686C49.475,174.246 49.943,173.909 50.494,173.675C51.045,173.435 51.666,173.314 52.357,173.314C53.031,173.314 53.629,173.426 54.15,173.648C54.672,173.871 55.108,174.188 55.46,174.598C55.817,175.008 56.087,175.5 56.269,176.074C56.45,176.643 56.541,177.275 56.541,177.973L56.541,179.027L48.982,179.027L48.982,177.34L54.054,177.34L54.054,177.146C54.054,176.795 53.989,176.481 53.86,176.206C53.737,175.925 53.55,175.702 53.298,175.538C53.046,175.374 52.724,175.292 52.331,175.292C51.997,175.292 51.71,175.365 51.47,175.512C51.23,175.658 51.033,175.863 50.881,176.127C50.734,176.391 50.623,176.701 50.547,177.059C50.477,177.41 50.441,177.797 50.441,178.219L50.441,178.57C50.441,178.951 50.494,179.303 50.6,179.625C50.711,179.947 50.866,180.226 51.065,180.46C51.271,180.694 51.517,180.876 51.804,181.005C52.097,181.134 52.428,181.198 52.797,181.198C53.254,181.198 53.679,181.11 54.071,180.935C54.47,180.753 54.813,180.48 55.1,180.117L56.33,181.453C56.131,181.74 55.858,182.016 55.513,182.279C55.173,182.543 54.763,182.76 54.282,182.93C53.802,183.094 53.254,183.176 52.639,183.176ZM60.654,169.5L60.654,183L58.114,183L58.114,169.5L60.654,169.5ZM65.418,169.5L65.418,183L62.878,183L62.878,169.5L65.418,169.5ZM72.643,180.855L72.643,176.619C72.643,176.314 72.593,176.054 72.493,175.837C72.394,175.614 72.238,175.441 72.027,175.318C71.822,175.195 71.556,175.134 71.228,175.134C70.946,175.134 70.703,175.184 70.498,175.283C70.293,175.377 70.135,175.515 70.023,175.696C69.912,175.872 69.856,176.08 69.856,176.32L67.325,176.32C67.325,175.916 67.419,175.532 67.606,175.169C67.794,174.806 68.066,174.486 68.424,174.211C68.781,173.93 69.206,173.71 69.698,173.552C70.196,173.394 70.753,173.314 71.368,173.314C72.106,173.314 72.763,173.438 73.337,173.684C73.911,173.93 74.362,174.299 74.69,174.791C75.024,175.283 75.191,175.898 75.191,176.637L75.191,180.706C75.191,181.228 75.224,181.655 75.288,181.989C75.353,182.317 75.446,182.604 75.569,182.851L75.569,183L73.012,183C72.889,182.742 72.795,182.42 72.731,182.033C72.672,181.641 72.643,181.248 72.643,180.855ZM72.977,177.208L72.994,178.641L71.579,178.641C71.245,178.641 70.955,178.679 70.709,178.755C70.463,178.831 70.261,178.939 70.103,179.08C69.944,179.215 69.827,179.373 69.751,179.555C69.681,179.736 69.646,179.936 69.646,180.152C69.646,180.369 69.695,180.565 69.795,180.741C69.894,180.911 70.038,181.046 70.226,181.146C70.413,181.239 70.633,181.286 70.885,181.286C71.266,181.286 71.597,181.21 71.878,181.058C72.159,180.905 72.376,180.718 72.528,180.495C72.687,180.272 72.769,180.062 72.774,179.862L73.442,180.935C73.349,181.175 73.22,181.424 73.056,181.682C72.897,181.939 72.695,182.183 72.449,182.411C72.203,182.634 71.907,182.818 71.562,182.965C71.216,183.105 70.806,183.176 70.331,183.176C69.728,183.176 69.18,183.056 68.688,182.815C68.201,182.569 67.815,182.232 67.527,181.805C67.246,181.371 67.106,180.879 67.106,180.328C67.106,179.83 67.199,179.388 67.387,179.001C67.574,178.614 67.85,178.289 68.213,178.025C68.582,177.756 69.042,177.554 69.593,177.419C70.144,177.278 70.782,177.208 71.509,177.208L72.977,177.208ZM82.987,170.203L85.22,170.203L88.507,179.599L91.794,170.203L94.026,170.203L89.403,183L87.61,183L82.987,170.203ZM81.783,170.203L84.007,170.203L84.411,179.361L84.411,183L81.783,183L81.783,170.203ZM93.007,170.203L95.239,170.203L95.239,183L92.603,183L92.603,179.361L93.007,170.203ZM102.525,180.855L102.525,176.619C102.525,176.314 102.476,176.054 102.376,175.837C102.276,175.614 102.121,175.441 101.91,175.318C101.705,175.195 101.438,175.134 101.11,175.134C100.829,175.134 100.586,175.184 100.381,175.283C100.176,175.377 100.018,175.515 99.906,175.696C99.795,175.872 99.739,176.08 99.739,176.32L97.208,176.32C97.208,175.916 97.302,175.532 97.489,175.169C97.677,174.806 97.949,174.486 98.307,174.211C98.664,173.93 99.089,173.71 99.581,173.552C100.079,173.394 100.636,173.314 101.251,173.314C101.989,173.314 102.646,173.438 103.22,173.684C103.794,173.93 104.245,174.299 104.573,174.791C104.907,175.283 105.074,175.898 105.074,176.637L105.074,180.706C105.074,181.228 105.106,181.655 105.171,181.989C105.235,182.317 105.329,182.604 105.452,182.851L105.452,183L102.895,183C102.771,182.742 102.678,182.42 102.613,182.033C102.555,181.641 102.525,181.248 102.525,180.855ZM102.859,177.208L102.877,178.641L101.462,178.641C101.128,178.641 100.838,178.679 100.592,178.755C100.346,178.831 100.144,178.939 99.985,179.08C99.827,179.215 99.71,179.373 99.634,179.555C99.564,179.736 99.528,179.936 99.528,180.152C99.528,180.369 99.578,180.565 99.678,180.741C99.777,180.911 99.921,181.046 100.108,181.146C100.296,181.239 100.516,181.286 100.768,181.286C101.148,181.286 101.479,181.21 101.761,181.058C102.042,180.905 102.259,180.718 102.411,180.495C102.569,180.272 102.651,180.062 102.657,179.862L103.325,180.935C103.231,181.175 103.103,181.424 102.938,181.682C102.78,181.939 102.578,182.183 102.332,182.411C102.086,182.634 101.79,182.818 101.444,182.965C101.099,183.105 100.688,183.176 100.214,183.176C99.61,183.176 99.063,183.056 98.57,182.815C98.084,182.569 97.697,182.232 97.41,181.805C97.129,181.371 96.988,180.879 96.988,180.328C96.988,179.83 97.082,179.388 97.269,179.001C97.457,178.614 97.732,178.289 98.096,178.025C98.465,177.756 98.925,177.554 99.476,177.419C100.026,177.278 100.665,177.208 101.392,177.208L102.859,177.208ZM109.557,175.564L109.557,183L107.025,183L107.025,173.49L109.407,173.49L109.557,175.564ZM112.422,173.429L112.378,175.775C112.255,175.758 112.105,175.743 111.93,175.731C111.76,175.714 111.604,175.705 111.464,175.705C111.106,175.705 110.796,175.752 110.532,175.846C110.274,175.934 110.058,176.065 109.882,176.241C109.712,176.417 109.583,176.631 109.495,176.883C109.413,177.135 109.366,177.422 109.354,177.744L108.845,177.586C108.845,176.971 108.906,176.405 109.029,175.89C109.152,175.368 109.331,174.914 109.565,174.527C109.806,174.141 110.099,173.842 110.444,173.631C110.79,173.42 111.186,173.314 111.631,173.314C111.771,173.314 111.915,173.326 112.062,173.35C112.208,173.367 112.328,173.394 112.422,173.429ZM118.715,173.49L118.715,175.283L113.178,175.283L113.178,173.49L118.715,173.49ZM114.549,171.144L117.08,171.144L117.08,180.135C117.08,180.41 117.115,180.621 117.186,180.768C117.262,180.914 117.373,181.017 117.52,181.075C117.666,181.128 117.851,181.154 118.073,181.154C118.231,181.154 118.372,181.148 118.495,181.137C118.624,181.119 118.732,181.102 118.82,181.084L118.829,182.947C118.612,183.018 118.378,183.073 118.126,183.114C117.874,183.155 117.596,183.176 117.291,183.176C116.734,183.176 116.248,183.085 115.832,182.903C115.422,182.716 115.105,182.417 114.883,182.007C114.66,181.597 114.549,181.058 114.549,180.39L114.549,171.144ZM122.828,173.49L122.828,183L120.288,183L120.288,173.49L122.828,173.49ZM120.13,171.012C120.13,170.643 120.259,170.338 120.517,170.098C120.774,169.857 121.12,169.737 121.554,169.737C121.981,169.737 122.324,169.857 122.582,170.098C122.846,170.338 122.978,170.643 122.978,171.012C122.978,171.381 122.846,171.686 122.582,171.926C122.324,172.166 121.981,172.286 121.554,172.286C121.12,172.286 120.774,172.166 120.517,171.926C120.259,171.686 120.13,171.381 120.13,171.012ZM127.398,175.521L127.398,183L124.867,183L124.867,173.49L127.24,173.49L127.398,175.521ZM127.029,177.911L126.344,177.911C126.344,177.208 126.435,176.575 126.616,176.013C126.798,175.444 127.053,174.961 127.381,174.562C127.709,174.158 128.099,173.851 128.55,173.64C129.007,173.423 129.517,173.314 130.079,173.314C130.524,173.314 130.932,173.379 131.301,173.508C131.67,173.637 131.986,173.842 132.25,174.123C132.52,174.404 132.725,174.776 132.865,175.239C133.012,175.702 133.085,176.268 133.085,176.936L133.085,183L130.536,183L130.536,176.927C130.536,176.505 130.478,176.177 130.36,175.942C130.243,175.708 130.07,175.544 129.842,175.45C129.619,175.351 129.344,175.301 129.016,175.301C128.676,175.301 128.38,175.368 128.128,175.503C127.882,175.638 127.677,175.825 127.513,176.065C127.354,176.3 127.234,176.575 127.152,176.892C127.07,177.208 127.029,177.548 127.029,177.911ZM139.387,183.176C138.648,183.176 137.986,183.059 137.4,182.824C136.814,182.584 136.316,182.253 135.906,181.831C135.502,181.409 135.191,180.92 134.975,180.363C134.758,179.801 134.649,179.203 134.649,178.57L134.649,178.219C134.649,177.498 134.752,176.839 134.957,176.241C135.162,175.644 135.455,175.125 135.836,174.686C136.223,174.246 136.691,173.909 137.242,173.675C137.793,173.435 138.414,173.314 139.105,173.314C139.779,173.314 140.377,173.426 140.898,173.648C141.42,173.871 141.856,174.188 142.208,174.598C142.565,175.008 142.835,175.5 143.017,176.074C143.198,176.643 143.289,177.275 143.289,177.973L143.289,179.027L135.73,179.027L135.73,177.34L140.802,177.34L140.802,177.146C140.802,176.795 140.737,176.481 140.608,176.206C140.485,175.925 140.298,175.702 140.046,175.538C139.794,175.374 139.472,175.292 139.079,175.292C138.745,175.292 138.458,175.365 138.218,175.512C137.978,175.658 137.781,175.863 137.629,176.127C137.482,176.391 137.371,176.701 137.295,177.059C137.225,177.41 137.189,177.797 137.189,178.219L137.189,178.57C137.189,178.951 137.242,179.303 137.348,179.625C137.459,179.947 137.614,180.226 137.813,180.46C138.019,180.694 138.265,180.876 138.552,181.005C138.845,181.134 139.176,181.198 139.545,181.198C140.002,181.198 140.427,181.11 140.819,180.935C141.218,180.753 141.561,180.48 141.848,180.117L143.078,181.453C142.879,181.74 142.606,182.016 142.261,182.279C141.921,182.543 141.511,182.76 141.03,182.93C140.55,183.094 140.002,183.176 139.387,183.176ZM152.298,181.022L152.298,183L145.073,183L145.073,181.022L152.298,181.022ZM152.157,174.949L146.093,183L144.396,183L144.396,181.497L150.435,173.49L152.157,173.49L152.157,174.949ZM151.261,173.49L151.261,175.477L144.537,175.477L144.537,173.49L151.261,173.49Z" style="fill-rule:nonzero;"/>
    <path d="M16.758,206.195L19.023,196.625L20.289,196.625L20.578,198.219L18.164,208L16.805,208L16.758,206.195ZM15.594,196.625L17.469,206.195L17.313,208L15.797,208L13.273,196.625L15.594,196.625ZM22.57,206.156L24.422,196.625L26.742,196.625L24.227,208L22.711,208L22.57,206.156ZM21,196.625L23.281,206.234L23.219,208L21.859,208L19.43,198.211L19.742,196.625L21,196.625ZM30.07,196L30.07,208L27.82,208L27.82,196L30.07,196ZM29.75,203.477L29.133,203.477C29.138,202.888 29.216,202.346 29.367,201.852C29.518,201.352 29.734,200.919 30.016,200.555C30.297,200.185 30.633,199.898 31.023,199.695C31.419,199.492 31.857,199.391 32.336,199.391C32.753,199.391 33.13,199.451 33.469,199.57C33.813,199.685 34.107,199.872 34.352,200.133C34.602,200.388 34.794,200.724 34.93,201.141C35.065,201.557 35.133,202.062 35.133,202.656L35.133,208L32.867,208L32.867,202.641C32.867,202.266 32.813,201.971 32.703,201.758C32.599,201.539 32.445,201.385 32.242,201.297C32.044,201.203 31.799,201.156 31.508,201.156C31.185,201.156 30.909,201.216 30.68,201.336C30.456,201.456 30.276,201.622 30.141,201.836C30.005,202.044 29.906,202.289 29.844,202.57C29.781,202.852 29.75,203.154 29.75,203.477ZM39.219,199.547L39.219,208L36.961,208L36.961,199.547L39.219,199.547ZM36.82,197.344C36.82,197.016 36.935,196.745 37.164,196.531C37.393,196.318 37.701,196.211 38.086,196.211C38.466,196.211 38.771,196.318 39,196.531C39.234,196.745 39.352,197.016 39.352,197.344C39.352,197.672 39.234,197.943 39,198.156C38.771,198.37 38.466,198.477 38.086,198.477C37.701,198.477 37.393,198.37 37.164,198.156C36.935,197.943 36.82,197.672 36.82,197.344ZM45.219,199.547L45.219,201.141L40.297,201.141L40.297,199.547L45.219,199.547ZM41.516,197.461L43.766,197.461L43.766,205.453C43.766,205.698 43.797,205.885 43.859,206.016C43.927,206.146 44.026,206.237 44.156,206.289C44.286,206.336 44.451,206.359 44.648,206.359C44.789,206.359 44.914,206.354 45.023,206.344C45.138,206.328 45.234,206.312 45.313,206.297L45.32,207.953C45.128,208.016 44.919,208.065 44.695,208.102C44.471,208.138 44.224,208.156 43.953,208.156C43.458,208.156 43.026,208.076 42.656,207.914C42.292,207.747 42.01,207.482 41.813,207.117C41.615,206.753 41.516,206.273 41.516,205.68L41.516,197.461ZM50.391,208.156C49.734,208.156 49.146,208.052 48.625,207.844C48.104,207.63 47.661,207.336 47.297,206.961C46.938,206.586 46.661,206.151 46.469,205.656C46.276,205.156 46.18,204.625 46.18,204.062L46.18,203.75C46.18,203.109 46.271,202.523 46.453,201.992C46.635,201.461 46.896,201 47.234,200.609C47.578,200.219 47.995,199.919 48.484,199.711C48.974,199.497 49.526,199.391 50.141,199.391C50.74,199.391 51.271,199.49 51.734,199.688C52.198,199.885 52.586,200.167 52.898,200.531C53.216,200.896 53.456,201.333 53.617,201.844C53.779,202.349 53.859,202.911 53.859,203.531L53.859,204.469L47.141,204.469L47.141,202.969L51.648,202.969L51.648,202.797C51.648,202.484 51.591,202.206 51.477,201.961C51.367,201.711 51.201,201.513 50.977,201.367C50.753,201.221 50.466,201.148 50.117,201.148C49.82,201.148 49.565,201.214 49.352,201.344C49.138,201.474 48.964,201.656 48.828,201.891C48.698,202.125 48.599,202.401 48.531,202.719C48.469,203.031 48.438,203.375 48.438,203.75L48.438,204.062C48.438,204.401 48.484,204.714 48.578,205C48.677,205.286 48.815,205.534 48.992,205.742C49.175,205.951 49.393,206.112 49.648,206.227C49.909,206.341 50.203,206.398 50.531,206.398C50.938,206.398 51.315,206.32 51.664,206.164C52.018,206.003 52.323,205.76 52.578,205.438L53.672,206.625C53.495,206.88 53.253,207.125 52.945,207.359C52.643,207.594 52.279,207.786 51.852,207.938C51.425,208.083 50.938,208.156 50.391,208.156ZM57.344,201.352L57.344,208L55.094,208L55.094,199.547L57.203,199.547L57.344,201.352ZM57.016,203.477L56.406,203.477C56.406,202.852 56.487,202.289 56.648,201.789C56.81,201.284 57.036,200.854 57.328,200.5C57.62,200.141 57.966,199.867 58.367,199.68C58.773,199.487 59.227,199.391 59.727,199.391C60.122,199.391 60.484,199.448 60.813,199.562C61.141,199.677 61.422,199.859 61.656,200.109C61.896,200.359 62.078,200.69 62.203,201.102C62.333,201.513 62.398,202.016 62.398,202.609L62.398,208L60.133,208L60.133,202.602C60.133,202.227 60.081,201.935 59.977,201.727C59.872,201.518 59.719,201.372 59.516,201.289C59.318,201.201 59.073,201.156 58.781,201.156C58.479,201.156 58.216,201.216 57.992,201.336C57.773,201.456 57.591,201.622 57.445,201.836C57.305,202.044 57.198,202.289 57.125,202.57C57.052,202.852 57.016,203.154 57.016,203.477ZM66.484,199.547L66.484,208L64.227,208L64.227,199.547L66.484,199.547ZM64.086,197.344C64.086,197.016 64.201,196.745 64.43,196.531C64.659,196.318 64.966,196.211 65.352,196.211C65.732,196.211 66.037,196.318 66.266,196.531C66.5,196.745 66.617,197.016 66.617,197.344C66.617,197.672 66.5,197.943 66.266,198.156C66.037,198.37 65.732,198.477 65.352,198.477C64.966,198.477 64.659,198.37 64.43,198.156C64.201,197.943 64.086,197.672 64.086,197.344ZM70.547,201.352L70.547,208L68.297,208L68.297,199.547L70.406,199.547L70.547,201.352ZM70.219,203.477L69.609,203.477C69.609,202.852 69.69,202.289 69.852,201.789C70.013,201.284 70.24,200.854 70.531,200.5C70.823,200.141 71.169,199.867 71.57,199.68C71.977,199.487 72.43,199.391 72.93,199.391C73.326,199.391 73.688,199.448 74.016,199.562C74.344,199.677 74.625,199.859 74.859,200.109C75.099,200.359 75.281,200.69 75.406,201.102C75.537,201.513 75.602,202.016 75.602,202.609L75.602,208L73.336,208L73.336,202.602C73.336,202.227 73.284,201.935 73.18,201.727C73.076,201.518 72.922,201.372 72.719,201.289C72.521,201.201 72.276,201.156 71.984,201.156C71.682,201.156 71.419,201.216 71.195,201.336C70.977,201.456 70.794,201.622 70.648,201.836C70.508,202.044 70.401,202.289 70.328,202.57C70.255,202.852 70.219,203.154 70.219,203.477ZM82.664,199.547L84.703,199.547L84.703,207.719C84.703,208.49 84.531,209.143 84.188,209.68C83.849,210.221 83.375,210.63 82.766,210.906C82.156,211.188 81.448,211.328 80.641,211.328C80.287,211.328 79.912,211.281 79.516,211.188C79.125,211.094 78.75,210.948 78.391,210.75C78.037,210.552 77.74,210.302 77.5,210L78.492,208.672C78.753,208.974 79.055,209.208 79.398,209.375C79.742,209.547 80.122,209.633 80.539,209.633C80.945,209.633 81.289,209.557 81.57,209.406C81.852,209.26 82.068,209.044 82.219,208.758C82.37,208.477 82.445,208.135 82.445,207.734L82.445,201.5L82.664,199.547ZM76.977,203.875L76.977,203.711C76.977,203.065 77.055,202.479 77.211,201.953C77.372,201.422 77.599,200.966 77.891,200.586C78.188,200.206 78.547,199.911 78.969,199.703C79.391,199.495 79.867,199.391 80.398,199.391C80.961,199.391 81.432,199.495 81.813,199.703C82.193,199.911 82.505,200.208 82.75,200.594C82.995,200.974 83.185,201.424 83.32,201.945C83.461,202.461 83.57,203.026 83.648,203.641L83.648,204C83.57,204.589 83.453,205.135 83.297,205.641C83.141,206.146 82.935,206.589 82.68,206.969C82.425,207.344 82.107,207.635 81.727,207.844C81.352,208.052 80.904,208.156 80.383,208.156C79.862,208.156 79.391,208.049 78.969,207.836C78.552,207.622 78.195,207.323 77.898,206.938C77.602,206.552 77.372,206.099 77.211,205.578C77.055,205.057 76.977,204.49 76.977,203.875ZM79.227,203.711L79.227,203.875C79.227,204.224 79.26,204.549 79.328,204.852C79.396,205.154 79.5,205.422 79.641,205.656C79.787,205.885 79.966,206.065 80.18,206.195C80.398,206.32 80.656,206.383 80.953,206.383C81.365,206.383 81.701,206.297 81.961,206.125C82.221,205.948 82.417,205.706 82.547,205.398C82.677,205.091 82.753,204.737 82.773,204.336L82.773,203.312C82.763,202.984 82.719,202.69 82.641,202.43C82.563,202.164 82.453,201.938 82.313,201.75C82.172,201.562 81.99,201.417 81.766,201.312C81.542,201.208 81.276,201.156 80.969,201.156C80.672,201.156 80.414,201.224 80.195,201.359C79.982,201.49 79.802,201.669 79.656,201.898C79.516,202.128 79.409,202.398 79.336,202.711C79.263,203.018 79.227,203.352 79.227,203.711Z" style="fill:rgb(82,82,82);fill-rule:nonzero;"/>
    <path d="M303,90C303,86.137 299.863,83 296,83L12,83C8.137,83 5,86.137 5,90L5,142C5,145.863 8.137,149 12,149L296,149C299.863,149 303,145.863 303,142L303,90Z" style="stroke:black;stroke-width:2px;"/>
    <path d="M299,86C299,82.137 295.863,79 292,79L8,79C4.137,79 1,82.137 1,86L1,138C1,141.863 4.137,145 8,145L292,145C295.863,145 299,141.863 299,138L299,86Z" style="fill:white;stroke:rgb(249,115,22);stroke-width:2px;"/>
    <path d="M15.347,93.203L17.579,93.203L20.866,102.599L24.153,93.203L26.386,93.203L21.763,106L19.97,106L15.347,93.203ZM14.143,93.203L16.366,93.203L16.77,102.361L16.77,106L14.143,106L14.143,93.203ZM25.366,93.203L27.599,93.203L27.599,106L24.962,106L24.962,102.361L25.366,93.203ZM34.885,103.855L34.885,99.619C34.885,99.315 34.835,99.054 34.735,98.837C34.636,98.614 34.481,98.441 34.27,98.318C34.065,98.195 33.798,98.134 33.47,98.134C33.189,98.134 32.945,98.184 32.74,98.283C32.535,98.377 32.377,98.515 32.266,98.696C32.154,98.872 32.099,99.08 32.099,99.32L29.567,99.32C29.567,98.916 29.661,98.532 29.849,98.169C30.036,97.806 30.309,97.486 30.666,97.211C31.023,96.93 31.448,96.71 31.94,96.552C32.438,96.394 32.995,96.315 33.61,96.315C34.349,96.315 35.005,96.438 35.579,96.684C36.153,96.93 36.605,97.299 36.933,97.791C37.267,98.283 37.434,98.898 37.434,99.637L37.434,103.706C37.434,104.228 37.466,104.655 37.53,104.989C37.595,105.317 37.689,105.604 37.812,105.851L37.812,106L35.254,106C35.131,105.742 35.037,105.42 34.973,105.033C34.914,104.641 34.885,104.248 34.885,103.855ZM35.219,100.208L35.236,101.641L33.821,101.641C33.487,101.641 33.197,101.679 32.951,101.755C32.705,101.831 32.503,101.939 32.345,102.08C32.187,102.215 32.069,102.373 31.993,102.555C31.923,102.736 31.888,102.936 31.888,103.152C31.888,103.369 31.938,103.565 32.037,103.741C32.137,103.911 32.28,104.046 32.468,104.146C32.655,104.239 32.875,104.286 33.127,104.286C33.508,104.286 33.839,104.21 34.12,104.058C34.401,103.905 34.618,103.718 34.771,103.495C34.929,103.272 35.011,103.062 35.017,102.862L35.685,103.935C35.591,104.175 35.462,104.424 35.298,104.682C35.14,104.939 34.938,105.183 34.691,105.411C34.445,105.634 34.149,105.818 33.804,105.965C33.458,106.105 33.048,106.176 32.573,106.176C31.97,106.176 31.422,106.056 30.93,105.815C30.443,105.569 30.057,105.232 29.77,104.805C29.488,104.371 29.348,103.879 29.348,103.328C29.348,102.83 29.441,102.388 29.629,102.001C29.816,101.614 30.092,101.289 30.455,101.025C30.824,100.756 31.284,100.554 31.835,100.419C32.386,100.278 33.024,100.208 33.751,100.208L35.219,100.208ZM41.916,98.565L41.916,106L39.385,106L39.385,96.49L41.767,96.49L41.916,98.565ZM44.781,96.429L44.737,98.775C44.614,98.758 44.465,98.743 44.289,98.731C44.119,98.714 43.964,98.705 43.823,98.705C43.466,98.705 43.155,98.752 42.892,98.846C42.634,98.934 42.417,99.065 42.241,99.241C42.071,99.417 41.942,99.631 41.855,99.883C41.773,100.135 41.726,100.422 41.714,100.744L41.204,100.586C41.204,99.971 41.266,99.405 41.389,98.89C41.512,98.368 41.69,97.914 41.925,97.527C42.165,97.141 42.458,96.842 42.804,96.631C43.149,96.42 43.545,96.315 43.99,96.315C44.131,96.315 44.274,96.326 44.421,96.35C44.567,96.367 44.688,96.394 44.781,96.429ZM49.73,104.198C50.04,104.198 50.315,104.14 50.556,104.022C50.796,103.899 50.983,103.729 51.118,103.513C51.259,103.29 51.332,103.029 51.338,102.73L53.72,102.73C53.714,103.398 53.535,103.993 53.184,104.515C52.832,105.03 52.36,105.438 51.769,105.736C51.177,106.029 50.515,106.176 49.782,106.176C49.044,106.176 48.399,106.053 47.849,105.807C47.304,105.561 46.85,105.221 46.486,104.787C46.123,104.348 45.851,103.838 45.669,103.258C45.487,102.672 45.397,102.045 45.397,101.377L45.397,101.122C45.397,100.448 45.487,99.821 45.669,99.241C45.851,98.655 46.123,98.146 46.486,97.712C46.85,97.272 47.304,96.93 47.849,96.684C48.394,96.438 49.032,96.315 49.765,96.315C50.544,96.315 51.227,96.464 51.813,96.763C52.404,97.062 52.867,97.489 53.201,98.046C53.541,98.597 53.714,99.25 53.72,100.006L51.338,100.006C51.332,99.69 51.265,99.402 51.136,99.144C51.013,98.887 50.831,98.682 50.591,98.529C50.356,98.371 50.066,98.292 49.721,98.292C49.352,98.292 49.05,98.371 48.815,98.529C48.581,98.682 48.399,98.893 48.271,99.162C48.142,99.426 48.051,99.728 47.998,100.067C47.951,100.401 47.928,100.753 47.928,101.122L47.928,101.377C47.928,101.746 47.951,102.101 47.998,102.44C48.045,102.78 48.133,103.082 48.262,103.346C48.397,103.609 48.581,103.817 48.815,103.97C49.05,104.122 49.355,104.198 49.73,104.198ZM60.813,103.724L60.813,96.49L63.344,96.49L63.344,106L60.962,106L60.813,103.724ZM61.094,101.772L61.841,101.755C61.841,102.388 61.768,102.977 61.621,103.521C61.475,104.061 61.255,104.529 60.962,104.928C60.669,105.32 60.3,105.628 59.855,105.851C59.409,106.067 58.885,106.176 58.281,106.176C57.818,106.176 57.391,106.111 56.998,105.982C56.611,105.848 56.277,105.64 55.996,105.358C55.721,105.071 55.504,104.705 55.346,104.26C55.193,103.809 55.117,103.267 55.117,102.634L55.117,96.49L57.648,96.49L57.648,102.651C57.648,102.933 57.681,103.17 57.745,103.363C57.815,103.557 57.912,103.715 58.035,103.838C58.158,103.961 58.302,104.049 58.466,104.102C58.636,104.154 58.823,104.181 59.028,104.181C59.55,104.181 59.96,104.075 60.259,103.864C60.564,103.653 60.777,103.366 60.9,103.003C61.029,102.634 61.094,102.224 61.094,101.772ZM70.419,103.372C70.419,103.19 70.366,103.026 70.261,102.88C70.155,102.733 69.959,102.599 69.672,102.476C69.391,102.347 68.983,102.229 68.45,102.124C67.97,102.019 67.522,101.887 67.106,101.729C66.695,101.564 66.338,101.368 66.033,101.14C65.734,100.911 65.5,100.642 65.33,100.331C65.16,100.015 65.075,99.654 65.075,99.25C65.075,98.852 65.16,98.477 65.33,98.125C65.506,97.773 65.755,97.463 66.077,97.193C66.405,96.918 66.804,96.704 67.272,96.552C67.747,96.394 68.28,96.315 68.872,96.315C69.698,96.315 70.407,96.446 70.999,96.71C71.597,96.974 72.054,97.337 72.37,97.8C72.692,98.257 72.854,98.778 72.854,99.364L70.322,99.364C70.322,99.118 70.269,98.898 70.164,98.705C70.065,98.506 69.906,98.351 69.69,98.239C69.479,98.122 69.203,98.064 68.863,98.064C68.582,98.064 68.339,98.113 68.134,98.213C67.929,98.307 67.771,98.436 67.659,98.6C67.554,98.758 67.501,98.934 67.501,99.127C67.501,99.273 67.53,99.405 67.589,99.522C67.653,99.634 67.756,99.736 67.897,99.83C68.037,99.924 68.219,100.012 68.441,100.094C68.67,100.17 68.951,100.24 69.285,100.305C69.971,100.445 70.583,100.63 71.122,100.858C71.661,101.081 72.089,101.386 72.405,101.772C72.722,102.153 72.88,102.654 72.88,103.275C72.88,103.697 72.786,104.084 72.599,104.436C72.411,104.787 72.142,105.095 71.79,105.358C71.439,105.616 71.017,105.818 70.524,105.965C70.038,106.105 69.49,106.176 68.881,106.176C67.996,106.176 67.246,106.018 66.631,105.701C66.022,105.385 65.559,104.983 65.242,104.497C64.932,104.005 64.776,103.501 64.776,102.985L67.176,102.985C67.188,103.331 67.275,103.609 67.44,103.82C67.609,104.031 67.823,104.184 68.081,104.277C68.345,104.371 68.629,104.418 68.934,104.418C69.262,104.418 69.534,104.374 69.751,104.286C69.968,104.192 70.132,104.069 70.243,103.917C70.36,103.759 70.419,103.577 70.419,103.372ZM84.367,95.392L80.887,106L78.083,106L82.838,93.203L84.622,93.203L84.367,95.392ZM87.259,106L83.769,95.392L83.488,93.203L85.29,93.203L90.071,106L87.259,106ZM87.101,101.236L87.101,103.302L80.342,103.302L80.342,101.236L87.101,101.236ZM93.297,98.521L93.297,106L90.766,106L90.766,96.49L93.139,96.49L93.297,98.521ZM92.928,100.911L92.242,100.911C92.242,100.208 92.333,99.575 92.515,99.013C92.696,98.444 92.951,97.961 93.279,97.563C93.607,97.158 93.997,96.851 94.448,96.64C94.905,96.423 95.415,96.315 95.978,96.315C96.423,96.315 96.83,96.379 97.199,96.508C97.568,96.637 97.885,96.842 98.148,97.123C98.418,97.404 98.623,97.776 98.764,98.239C98.91,98.702 98.983,99.268 98.983,99.936L98.983,106L96.435,106L96.435,99.927C96.435,99.505 96.376,99.177 96.259,98.942C96.142,98.708 95.969,98.544 95.74,98.45C95.518,98.351 95.242,98.301 94.914,98.301C94.574,98.301 94.278,98.368 94.026,98.503C93.78,98.638 93.575,98.825 93.411,99.065C93.253,99.3 93.133,99.575 93.051,99.892C92.969,100.208 92.928,100.548 92.928,100.911ZM106.524,103.926L106.524,92.5L109.073,92.5L109.073,106L106.779,106L106.524,103.926ZM100.513,101.359L100.513,101.175C100.513,100.448 100.595,99.789 100.759,99.197C100.923,98.6 101.163,98.087 101.479,97.659C101.796,97.231 102.186,96.9 102.648,96.666C103.111,96.432 103.639,96.315 104.23,96.315C104.787,96.315 105.273,96.432 105.689,96.666C106.111,96.9 106.469,97.234 106.762,97.668C107.061,98.096 107.301,98.603 107.482,99.189C107.664,99.769 107.796,100.404 107.878,101.096L107.878,101.5C107.796,102.162 107.664,102.777 107.482,103.346C107.301,103.914 107.061,104.412 106.762,104.84C106.469,105.262 106.111,105.59 105.689,105.824C105.268,106.059 104.775,106.176 104.213,106.176C103.621,106.176 103.094,106.056 102.631,105.815C102.174,105.575 101.787,105.238 101.471,104.805C101.16,104.371 100.923,103.861 100.759,103.275C100.595,102.689 100.513,102.051 100.513,101.359ZM103.044,101.175L103.044,101.359C103.044,101.752 103.073,102.118 103.132,102.458C103.196,102.798 103.299,103.1 103.439,103.363C103.586,103.621 103.773,103.823 104.002,103.97C104.236,104.11 104.521,104.181 104.854,104.181C105.288,104.181 105.646,104.084 105.927,103.891C106.208,103.691 106.422,103.419 106.568,103.073C106.721,102.728 106.809,102.329 106.832,101.878L106.832,100.727C106.814,100.357 106.762,100.026 106.674,99.733C106.592,99.435 106.469,99.18 106.305,98.969C106.146,98.758 105.947,98.594 105.707,98.477C105.473,98.359 105.194,98.301 104.872,98.301C104.544,98.301 104.263,98.377 104.028,98.529C103.794,98.676 103.604,98.878 103.457,99.136C103.316,99.394 103.211,99.698 103.141,100.05C103.076,100.396 103.044,100.771 103.044,101.175ZM115.428,106.176C114.689,106.176 114.027,106.059 113.441,105.824C112.855,105.584 112.357,105.253 111.947,104.831C111.543,104.409 111.232,103.92 111.016,103.363C110.799,102.801 110.69,102.203 110.69,101.57L110.69,101.219C110.69,100.498 110.793,99.839 110.998,99.241C111.203,98.644 111.496,98.125 111.877,97.686C112.264,97.246 112.732,96.909 113.283,96.675C113.834,96.435 114.455,96.315 115.146,96.315C115.82,96.315 116.418,96.426 116.939,96.648C117.461,96.871 117.897,97.188 118.249,97.598C118.606,98.008 118.876,98.5 119.058,99.074C119.239,99.643 119.33,100.275 119.33,100.973L119.33,102.027L111.771,102.027L111.771,100.34L116.843,100.34L116.843,100.146C116.843,99.795 116.778,99.481 116.649,99.206C116.526,98.925 116.339,98.702 116.087,98.538C115.835,98.374 115.513,98.292 115.12,98.292C114.786,98.292 114.499,98.365 114.259,98.512C114.019,98.658 113.822,98.863 113.67,99.127C113.523,99.391 113.412,99.701 113.336,100.059C113.266,100.41 113.23,100.797 113.23,101.219L113.23,101.57C113.23,101.951 113.283,102.303 113.389,102.625C113.5,102.947 113.655,103.226 113.854,103.46C114.06,103.694 114.306,103.876 114.593,104.005C114.886,104.134 115.217,104.198 115.586,104.198C116.043,104.198 116.468,104.11 116.86,103.935C117.259,103.753 117.602,103.48 117.889,103.117L119.119,104.453C118.92,104.74 118.647,105.016 118.302,105.279C117.962,105.543 117.552,105.76 117.071,105.93C116.591,106.094 116.043,106.176 115.428,106.176ZM123.303,98.565L123.303,106L120.771,106L120.771,96.49L123.153,96.49L123.303,98.565ZM126.168,96.429L126.124,98.775C126.001,98.758 125.852,98.743 125.676,98.731C125.506,98.714 125.351,98.705 125.21,98.705C124.853,98.705 124.542,98.752 124.278,98.846C124.021,98.934 123.804,99.065 123.628,99.241C123.458,99.417 123.329,99.631 123.241,99.883C123.159,100.135 123.112,100.422 123.101,100.744L122.591,100.586C122.591,99.971 122.652,99.405 122.775,98.89C122.898,98.368 123.077,97.914 123.312,97.527C123.552,97.141 123.845,96.842 124.19,96.631C124.536,96.42 124.932,96.315 125.377,96.315C125.518,96.315 125.661,96.326 125.808,96.35C125.954,96.367 126.074,96.394 126.168,96.429ZM132.505,103.372C132.505,103.19 132.452,103.026 132.347,102.88C132.241,102.733 132.045,102.599 131.758,102.476C131.477,102.347 131.069,102.229 130.536,102.124C130.056,102.019 129.607,101.887 129.191,101.729C128.781,101.564 128.424,101.368 128.119,101.14C127.82,100.911 127.586,100.642 127.416,100.331C127.246,100.015 127.161,99.654 127.161,99.25C127.161,98.852 127.246,98.477 127.416,98.125C127.592,97.773 127.841,97.463 128.163,97.193C128.491,96.918 128.89,96.704 129.358,96.552C129.833,96.394 130.366,96.315 130.958,96.315C131.784,96.315 132.493,96.446 133.085,96.71C133.683,96.974 134.14,97.337 134.456,97.8C134.778,98.257 134.939,98.778 134.939,99.364L132.408,99.364C132.408,99.118 132.355,98.898 132.25,98.705C132.15,98.506 131.992,98.351 131.775,98.239C131.564,98.122 131.289,98.064 130.949,98.064C130.668,98.064 130.425,98.113 130.22,98.213C130.015,98.307 129.856,98.436 129.745,98.6C129.64,98.758 129.587,98.934 129.587,99.127C129.587,99.273 129.616,99.405 129.675,99.522C129.739,99.634 129.842,99.736 129.982,99.83C130.123,99.924 130.305,100.012 130.527,100.094C130.756,100.17 131.037,100.24 131.371,100.305C132.057,100.445 132.669,100.63 133.208,100.858C133.747,101.081 134.175,101.386 134.491,101.772C134.808,102.153 134.966,102.654 134.966,103.275C134.966,103.697 134.872,104.084 134.685,104.436C134.497,104.787 134.228,105.095 133.876,105.358C133.524,105.616 133.103,105.818 132.61,105.965C132.124,106.105 131.576,106.176 130.967,106.176C130.082,106.176 129.332,106.018 128.717,105.701C128.107,105.385 127.645,104.983 127.328,104.497C127.018,104.005 126.862,103.501 126.862,102.985L129.262,102.985C129.273,103.331 129.361,103.609 129.525,103.82C129.695,104.031 129.909,104.184 130.167,104.277C130.431,104.371 130.715,104.418 131.02,104.418C131.348,104.418 131.62,104.374 131.837,104.286C132.054,104.192 132.218,104.069 132.329,103.917C132.446,103.759 132.505,103.577 132.505,103.372ZM136.205,101.342L136.205,101.157C136.205,100.46 136.305,99.818 136.504,99.232C136.703,98.641 136.993,98.128 137.374,97.694C137.755,97.261 138.224,96.924 138.78,96.684C139.337,96.438 139.976,96.315 140.696,96.315C141.417,96.315 142.059,96.438 142.621,96.684C143.184,96.924 143.655,97.261 144.036,97.694C144.423,98.128 144.716,98.641 144.915,99.232C145.114,99.818 145.214,100.46 145.214,101.157L145.214,101.342C145.214,102.033 145.114,102.675 144.915,103.267C144.716,103.853 144.423,104.365 144.036,104.805C143.655,105.238 143.187,105.575 142.63,105.815C142.073,106.056 141.435,106.176 140.714,106.176C139.993,106.176 139.352,106.056 138.789,105.815C138.232,105.575 137.761,105.238 137.374,104.805C136.993,104.365 136.703,103.853 136.504,103.267C136.305,102.675 136.205,102.033 136.205,101.342ZM138.736,101.157L138.736,101.342C138.736,101.74 138.771,102.112 138.842,102.458C138.912,102.804 139.023,103.108 139.176,103.372C139.334,103.63 139.539,103.832 139.791,103.979C140.043,104.125 140.351,104.198 140.714,104.198C141.065,104.198 141.367,104.125 141.619,103.979C141.871,103.832 142.073,103.63 142.226,103.372C142.378,103.108 142.489,102.804 142.56,102.458C142.636,102.112 142.674,101.74 142.674,101.342L142.674,101.157C142.674,100.771 142.636,100.407 142.56,100.067C142.489,99.722 142.375,99.417 142.217,99.153C142.064,98.884 141.862,98.673 141.61,98.521C141.358,98.368 141.054,98.292 140.696,98.292C140.339,98.292 140.034,98.368 139.782,98.521C139.536,98.673 139.334,98.884 139.176,99.153C139.023,99.417 138.912,99.722 138.842,100.067C138.771,100.407 138.736,100.771 138.736,101.157ZM149.248,98.521L149.248,106L146.717,106L146.717,96.49L149.09,96.49L149.248,98.521ZM148.879,100.911L148.193,100.911C148.193,100.208 148.284,99.575 148.466,99.013C148.647,98.444 148.902,97.961 149.23,97.563C149.559,97.158 149.948,96.851 150.399,96.64C150.856,96.423 151.366,96.315 151.929,96.315C152.374,96.315 152.781,96.379 153.15,96.508C153.52,96.637 153.836,96.842 154.1,97.123C154.369,97.404 154.574,97.776 154.715,98.239C154.861,98.702 154.935,99.268 154.935,99.936L154.935,106L152.386,106L152.386,99.927C152.386,99.505 152.327,99.177 152.21,98.942C152.093,98.708 151.92,98.544 151.691,98.45C151.469,98.351 151.193,98.301 150.865,98.301C150.525,98.301 150.229,98.368 149.978,98.503C149.731,98.638 149.526,98.825 149.362,99.065C149.204,99.3 149.084,99.575 149.002,99.892C148.92,100.208 148.879,100.548 148.879,100.911Z" style="fill-rule:nonzero;"/>
    <path d="M20.609,127.227L22.945,127.227C22.898,127.992 22.688,128.672 22.313,129.266C21.943,129.859 21.424,130.323 20.758,130.656C20.096,130.99 19.299,131.156 18.367,131.156C17.638,131.156 16.984,131.031 16.406,130.781C15.828,130.526 15.333,130.161 14.922,129.688C14.516,129.214 14.206,128.641 13.992,127.969C13.779,127.297 13.672,126.544 13.672,125.711L13.672,124.922C13.672,124.089 13.781,123.336 14,122.664C14.224,121.987 14.542,121.411 14.953,120.938C15.37,120.464 15.867,120.099 16.445,119.844C17.023,119.589 17.669,119.461 18.383,119.461C19.331,119.461 20.13,119.633 20.781,119.977C21.438,120.32 21.945,120.794 22.305,121.398C22.669,122.003 22.888,122.69 22.961,123.461L20.617,123.461C20.591,123.003 20.5,122.615 20.344,122.297C20.188,121.974 19.951,121.732 19.633,121.57C19.32,121.404 18.904,121.32 18.383,121.32C17.992,121.32 17.651,121.393 17.359,121.539C17.068,121.685 16.823,121.906 16.625,122.203C16.427,122.5 16.279,122.875 16.18,123.328C16.086,123.776 16.039,124.302 16.039,124.906L16.039,125.711C16.039,126.299 16.083,126.818 16.172,127.266C16.26,127.708 16.396,128.083 16.578,128.391C16.766,128.693 17.005,128.922 17.297,129.078C17.594,129.229 17.951,129.305 18.367,129.305C18.857,129.305 19.26,129.227 19.578,129.07C19.896,128.914 20.138,128.682 20.305,128.375C20.477,128.068 20.578,127.685 20.609,127.227ZM26.539,119L26.539,131L24.289,131L24.289,119L26.539,119ZM26.219,126.477L25.602,126.477C25.607,125.888 25.685,125.346 25.836,124.852C25.987,124.352 26.203,123.919 26.484,123.555C26.766,123.185 27.102,122.898 27.492,122.695C27.888,122.492 28.326,122.391 28.805,122.391C29.221,122.391 29.599,122.451 29.938,122.57C30.281,122.685 30.576,122.872 30.82,123.133C31.07,123.388 31.263,123.724 31.398,124.141C31.534,124.557 31.602,125.062 31.602,125.656L31.602,131L29.336,131L29.336,125.641C29.336,125.266 29.281,124.971 29.172,124.758C29.068,124.539 28.914,124.385 28.711,124.297C28.513,124.203 28.268,124.156 27.977,124.156C27.654,124.156 27.378,124.216 27.148,124.336C26.924,124.456 26.745,124.622 26.609,124.836C26.474,125.044 26.375,125.289 26.313,125.57C26.25,125.852 26.219,126.154 26.219,126.477ZM37.203,131.156C36.547,131.156 35.958,131.052 35.438,130.844C34.917,130.63 34.474,130.336 34.109,129.961C33.75,129.586 33.474,129.151 33.281,128.656C33.089,128.156 32.992,127.625 32.992,127.062L32.992,126.75C32.992,126.109 33.083,125.523 33.266,124.992C33.448,124.461 33.708,124 34.047,123.609C34.391,123.219 34.807,122.919 35.297,122.711C35.786,122.497 36.339,122.391 36.953,122.391C37.552,122.391 38.083,122.49 38.547,122.688C39.01,122.885 39.398,123.167 39.711,123.531C40.029,123.896 40.268,124.333 40.43,124.844C40.591,125.349 40.672,125.911 40.672,126.531L40.672,127.469L33.953,127.469L33.953,125.969L38.461,125.969L38.461,125.797C38.461,125.484 38.404,125.206 38.289,124.961C38.18,124.711 38.013,124.513 37.789,124.367C37.565,124.221 37.279,124.148 36.93,124.148C36.633,124.148 36.378,124.214 36.164,124.344C35.951,124.474 35.776,124.656 35.641,124.891C35.51,125.125 35.411,125.401 35.344,125.719C35.281,126.031 35.25,126.375 35.25,126.75L35.25,127.062C35.25,127.401 35.297,127.714 35.391,128C35.49,128.286 35.628,128.534 35.805,128.742C35.987,128.951 36.206,129.112 36.461,129.227C36.721,129.341 37.016,129.398 37.344,129.398C37.75,129.398 38.128,129.32 38.477,129.164C38.831,129.003 39.135,128.76 39.391,128.438L40.484,129.625C40.307,129.88 40.065,130.125 39.758,130.359C39.456,130.594 39.091,130.786 38.664,130.938C38.237,131.083 37.75,131.156 37.203,131.156ZM45.445,129.398C45.721,129.398 45.966,129.346 46.18,129.242C46.393,129.133 46.56,128.982 46.68,128.789C46.805,128.591 46.87,128.359 46.875,128.094L48.992,128.094C48.987,128.688 48.828,129.216 48.516,129.68C48.203,130.138 47.784,130.5 47.258,130.766C46.732,131.026 46.143,131.156 45.492,131.156C44.836,131.156 44.263,131.047 43.773,130.828C43.289,130.609 42.885,130.307 42.563,129.922C42.24,129.531 41.997,129.078 41.836,128.562C41.675,128.042 41.594,127.484 41.594,126.891L41.594,126.664C41.594,126.065 41.675,125.508 41.836,124.992C41.997,124.471 42.24,124.018 42.563,123.633C42.885,123.242 43.289,122.938 43.773,122.719C44.258,122.5 44.826,122.391 45.477,122.391C46.169,122.391 46.776,122.523 47.297,122.789C47.823,123.055 48.234,123.435 48.531,123.93C48.833,124.419 48.987,125 48.992,125.672L46.875,125.672C46.87,125.391 46.81,125.135 46.695,124.906C46.586,124.677 46.425,124.495 46.211,124.359C46.003,124.219 45.745,124.148 45.438,124.148C45.109,124.148 44.841,124.219 44.633,124.359C44.425,124.495 44.263,124.682 44.148,124.922C44.034,125.156 43.953,125.424 43.906,125.727C43.865,126.023 43.844,126.336 43.844,126.664L43.844,126.891C43.844,127.219 43.865,127.534 43.906,127.836C43.948,128.138 44.026,128.406 44.141,128.641C44.26,128.875 44.425,129.06 44.633,129.195C44.841,129.331 45.112,129.398 45.445,129.398ZM52.547,118.992L52.547,131L50.297,131L50.297,118.992L52.547,118.992ZM57.875,122.547L54.203,126.734L52.234,128.727L51.414,127.102L52.977,125.117L55.172,122.547L57.875,122.547ZM55.539,131L53.039,127.094L54.594,125.734L58.133,131L55.539,131ZM63.844,128.977L63.844,122.547L66.094,122.547L66.094,131L63.977,131L63.844,128.977ZM64.094,127.242L64.758,127.227C64.758,127.789 64.693,128.312 64.563,128.797C64.432,129.276 64.237,129.693 63.977,130.047C63.716,130.396 63.388,130.669 62.992,130.867C62.596,131.06 62.13,131.156 61.594,131.156C61.182,131.156 60.802,131.099 60.453,130.984C60.109,130.865 59.813,130.68 59.563,130.43C59.318,130.174 59.125,129.849 58.984,129.453C58.849,129.052 58.781,128.57 58.781,128.008L58.781,122.547L61.031,122.547L61.031,128.023C61.031,128.273 61.06,128.484 61.117,128.656C61.18,128.828 61.266,128.969 61.375,129.078C61.484,129.188 61.612,129.266 61.758,129.312C61.909,129.359 62.076,129.383 62.258,129.383C62.721,129.383 63.086,129.289 63.352,129.102C63.622,128.914 63.813,128.659 63.922,128.336C64.037,128.008 64.094,127.643 64.094,127.242ZM70.063,124.172L70.063,134.25L67.813,134.25L67.813,122.547L69.898,122.547L70.063,124.172ZM75.414,126.68L75.414,126.844C75.414,127.458 75.341,128.029 75.195,128.555C75.055,129.081 74.846,129.539 74.57,129.93C74.294,130.315 73.951,130.617 73.539,130.836C73.133,131.049 72.664,131.156 72.133,131.156C71.617,131.156 71.169,131.052 70.789,130.844C70.409,130.635 70.089,130.344 69.828,129.969C69.573,129.589 69.367,129.148 69.211,128.648C69.055,128.148 68.935,127.612 68.852,127.039L68.852,126.609C68.935,125.995 69.055,125.432 69.211,124.922C69.367,124.406 69.573,123.961 69.828,123.586C70.089,123.206 70.406,122.911 70.781,122.703C71.162,122.495 71.607,122.391 72.117,122.391C72.654,122.391 73.125,122.492 73.531,122.695C73.943,122.898 74.287,123.19 74.563,123.57C74.844,123.951 75.055,124.404 75.195,124.93C75.341,125.456 75.414,126.039 75.414,126.68ZM73.156,126.844L73.156,126.68C73.156,126.32 73.125,125.99 73.063,125.688C73.005,125.38 72.912,125.112 72.781,124.883C72.656,124.654 72.49,124.477 72.281,124.352C72.078,124.221 71.831,124.156 71.539,124.156C71.232,124.156 70.969,124.206 70.75,124.305C70.537,124.404 70.362,124.547 70.227,124.734C70.091,124.922 69.99,125.146 69.922,125.406C69.854,125.667 69.813,125.961 69.797,126.289L69.797,127.375C69.823,127.76 69.896,128.107 70.016,128.414C70.135,128.716 70.32,128.956 70.57,129.133C70.82,129.31 71.148,129.398 71.555,129.398C71.852,129.398 72.102,129.333 72.305,129.203C72.508,129.068 72.672,128.883 72.797,128.648C72.927,128.414 73.018,128.143 73.07,127.836C73.128,127.529 73.156,127.198 73.156,126.844Z" style="fill:rgb(82,82,82);fill-rule:nonzero;"/>
    <path d="M303,12C303,8.137 299.863,5 296,5L12,5C8.137,5 5,8.137 5,12L5,64C5,67.863 8.137,71 12,71L296,71C299.863,71 303,67.863 303,64L303,12Z" style="stroke:black;stroke-width:2px;"/>
    <path d="M299,8C299,4.137 295.863,1 292,1L8,1C4.137,1 1,4.137 1,8L1,60C1,63.863 4.137,67 8,67L292,67C295.863,67 299,63.863 299,60L299,8Z" style="fill:white;stroke:rgb(34,197,94);stroke-width:2px;"/>
    <path d="M20.805,24.651C20.805,24.423 20.77,24.218 20.699,24.036C20.635,23.849 20.512,23.679 20.33,23.526C20.148,23.368 19.894,23.213 19.565,23.061C19.237,22.908 18.813,22.75 18.291,22.586C17.711,22.398 17.16,22.188 16.639,21.953C16.123,21.719 15.666,21.446 15.268,21.136C14.875,20.819 14.565,20.453 14.336,20.037C14.113,19.621 14.002,19.138 14.002,18.587C14.002,18.054 14.119,17.57 14.354,17.137C14.588,16.697 14.916,16.322 15.338,16.012C15.76,15.695 16.258,15.452 16.832,15.282C17.412,15.112 18.048,15.027 18.739,15.027C19.683,15.027 20.506,15.197 21.209,15.537C21.912,15.877 22.457,16.343 22.844,16.935C23.236,17.526 23.433,18.203 23.433,18.965L20.814,18.965C20.814,18.59 20.734,18.262 20.576,17.981C20.424,17.693 20.19,17.468 19.873,17.304C19.563,17.14 19.17,17.058 18.695,17.058C18.238,17.058 17.857,17.128 17.553,17.269C17.248,17.403 17.02,17.588 16.867,17.822C16.715,18.051 16.639,18.309 16.639,18.596C16.639,18.813 16.691,19.009 16.797,19.185C16.908,19.36 17.072,19.524 17.289,19.677C17.506,19.829 17.773,19.973 18.089,20.107C18.405,20.242 18.772,20.374 19.188,20.503C19.885,20.714 20.497,20.951 21.024,21.215C21.558,21.479 22.003,21.774 22.36,22.103C22.718,22.431 22.987,22.803 23.169,23.219C23.351,23.635 23.441,24.106 23.441,24.634C23.441,25.19 23.333,25.689 23.116,26.128C22.899,26.567 22.586,26.94 22.176,27.244C21.766,27.549 21.276,27.78 20.708,27.939C20.14,28.097 19.504,28.176 18.801,28.176C18.168,28.176 17.544,28.094 16.929,27.93C16.314,27.76 15.754,27.505 15.25,27.165C14.752,26.825 14.354,26.392 14.055,25.864C13.756,25.337 13.606,24.713 13.606,23.992L16.252,23.992C16.252,24.391 16.314,24.728 16.437,25.003C16.56,25.278 16.732,25.501 16.955,25.671C17.184,25.841 17.453,25.964 17.764,26.04C18.08,26.116 18.426,26.154 18.801,26.154C19.258,26.154 19.633,26.09 19.926,25.961C20.225,25.832 20.444,25.653 20.585,25.425C20.731,25.196 20.805,24.939 20.805,24.651ZM30.209,25.856L30.209,21.619C30.209,21.315 30.159,21.054 30.06,20.837C29.96,20.614 29.805,20.441 29.594,20.318C29.389,20.195 29.122,20.134 28.794,20.134C28.513,20.134 28.27,20.184 28.065,20.283C27.859,20.377 27.701,20.515 27.59,20.696C27.479,20.872 27.423,21.08 27.423,21.32L24.892,21.32C24.892,20.916 24.985,20.532 25.173,20.169C25.36,19.806 25.633,19.486 25.99,19.211C26.348,18.93 26.773,18.71 27.265,18.552C27.763,18.394 28.319,18.315 28.935,18.315C29.673,18.315 30.329,18.438 30.903,18.684C31.478,18.93 31.929,19.299 32.257,19.791C32.591,20.283 32.758,20.898 32.758,21.637L32.758,25.706C32.758,26.228 32.79,26.655 32.855,26.989C32.919,27.317 33.013,27.605 33.136,27.851L33.136,28L30.578,28C30.455,27.742 30.361,27.42 30.297,27.033C30.238,26.641 30.209,26.248 30.209,25.856ZM30.543,22.208L30.561,23.641L29.145,23.641C28.811,23.641 28.522,23.679 28.275,23.755C28.029,23.831 27.827,23.94 27.669,24.08C27.511,24.215 27.394,24.373 27.317,24.555C27.247,24.736 27.212,24.936 27.212,25.152C27.212,25.369 27.262,25.565 27.361,25.741C27.461,25.911 27.605,26.046 27.792,26.145C27.98,26.239 28.199,26.286 28.451,26.286C28.832,26.286 29.163,26.21 29.444,26.058C29.726,25.905 29.942,25.718 30.095,25.495C30.253,25.273 30.335,25.062 30.341,24.862L31.009,25.935C30.915,26.175 30.786,26.424 30.622,26.682C30.464,26.94 30.262,27.183 30.016,27.411C29.77,27.634 29.474,27.818 29.128,27.965C28.782,28.106 28.372,28.176 27.898,28.176C27.294,28.176 26.746,28.056 26.254,27.815C25.768,27.569 25.381,27.232 25.094,26.805C24.813,26.371 24.672,25.879 24.672,25.328C24.672,24.83 24.766,24.388 24.953,24.001C25.141,23.614 25.416,23.289 25.779,23.025C26.148,22.756 26.608,22.554 27.159,22.419C27.71,22.278 28.349,22.208 29.075,22.208L30.543,22.208ZM37.24,20.459L37.24,28L34.7,28L34.7,18.49L37.082,18.49L37.24,20.459ZM36.889,22.911L36.186,22.911C36.186,22.249 36.265,21.64 36.423,21.083C36.587,20.52 36.824,20.034 37.135,19.624C37.451,19.208 37.841,18.886 38.304,18.657C38.767,18.429 39.303,18.315 39.912,18.315C40.334,18.315 40.721,18.379 41.072,18.508C41.424,18.631 41.726,18.827 41.978,19.097C42.235,19.36 42.435,19.706 42.575,20.134C42.716,20.556 42.786,21.063 42.786,21.654L42.786,28L40.255,28L40.255,21.936C40.255,21.502 40.196,21.168 40.079,20.934C39.962,20.699 39.795,20.535 39.578,20.441C39.367,20.348 39.112,20.301 38.814,20.301C38.485,20.301 38.198,20.368 37.952,20.503C37.712,20.638 37.513,20.825 37.355,21.065C37.196,21.3 37.079,21.575 37.003,21.892C36.927,22.208 36.889,22.548 36.889,22.911ZM42.549,22.621L41.644,22.735C41.644,22.114 41.72,21.537 41.872,21.004C42.03,20.471 42.262,20.002 42.566,19.598C42.877,19.193 43.261,18.88 43.718,18.657C44.175,18.429 44.702,18.315 45.3,18.315C45.757,18.315 46.173,18.382 46.548,18.517C46.923,18.645 47.242,18.854 47.506,19.141C47.775,19.422 47.981,19.791 48.121,20.248C48.268,20.705 48.341,21.265 48.341,21.927L48.341,28L45.801,28L45.801,21.927C45.801,21.487 45.742,21.153 45.625,20.925C45.514,20.69 45.35,20.529 45.133,20.441C44.922,20.348 44.67,20.301 44.377,20.301C44.072,20.301 43.806,20.362 43.577,20.485C43.349,20.603 43.158,20.767 43.006,20.978C42.853,21.189 42.739,21.435 42.663,21.716C42.587,21.991 42.549,22.293 42.549,22.621ZM55.434,25.856L55.434,21.619C55.434,21.315 55.384,21.054 55.284,20.837C55.185,20.614 55.029,20.441 54.818,20.318C54.613,20.195 54.347,20.134 54.019,20.134C53.737,20.134 53.494,20.184 53.289,20.283C53.084,20.377 52.926,20.515 52.815,20.696C52.703,20.872 52.648,21.08 52.648,21.32L50.116,21.32C50.116,20.916 50.21,20.532 50.398,20.169C50.585,19.806 50.857,19.486 51.215,19.211C51.572,18.93 51.997,18.71 52.489,18.552C52.987,18.394 53.544,18.315 54.159,18.315C54.898,18.315 55.554,18.438 56.128,18.684C56.702,18.93 57.153,19.299 57.481,19.791C57.815,20.283 57.982,20.898 57.982,21.637L57.982,25.706C57.982,26.228 58.015,26.655 58.079,26.989C58.144,27.317 58.237,27.605 58.36,27.851L58.36,28L55.803,28C55.68,27.742 55.586,27.42 55.522,27.033C55.463,26.641 55.434,26.248 55.434,25.856ZM55.768,22.208L55.785,23.641L54.37,23.641C54.036,23.641 53.746,23.679 53.5,23.755C53.254,23.831 53.052,23.94 52.894,24.08C52.735,24.215 52.618,24.373 52.542,24.555C52.472,24.736 52.437,24.936 52.437,25.152C52.437,25.369 52.486,25.565 52.586,25.741C52.686,25.911 52.829,26.046 53.017,26.145C53.204,26.239 53.424,26.286 53.676,26.286C54.057,26.286 54.388,26.21 54.669,26.058C54.95,25.905 55.167,25.718 55.319,25.495C55.478,25.273 55.56,25.062 55.565,24.862L56.233,25.935C56.14,26.175 56.011,26.424 55.847,26.682C55.689,26.94 55.486,27.183 55.24,27.411C54.994,27.634 54.698,27.818 54.353,27.965C54.007,28.106 53.597,28.176 53.122,28.176C52.519,28.176 51.971,28.056 51.478,27.815C50.992,27.569 50.606,27.232 50.318,26.805C50.037,26.371 49.897,25.879 49.897,25.328C49.897,24.83 49.99,24.388 50.178,24.001C50.365,23.614 50.641,23.289 51.004,23.025C51.373,22.756 51.833,22.554 52.384,22.419C52.935,22.278 53.573,22.208 54.3,22.208L55.768,22.208ZM62.412,20.52L62.412,28L59.881,28L59.881,18.49L62.254,18.49L62.412,20.52ZM62.043,22.911L61.357,22.911C61.357,22.208 61.448,21.575 61.63,21.013C61.812,20.444 62.066,19.961 62.395,19.563C62.723,19.158 63.112,18.851 63.563,18.64C64.021,18.423 64.53,18.315 65.093,18.315C65.538,18.315 65.945,18.379 66.315,18.508C66.684,18.637 67,18.842 67.264,19.123C67.533,19.404 67.738,19.776 67.879,20.239C68.025,20.702 68.099,21.268 68.099,21.936L68.099,28L65.55,28L65.55,21.927C65.55,21.505 65.491,21.177 65.374,20.942C65.257,20.708 65.084,20.544 64.856,20.45C64.633,20.351 64.357,20.301 64.029,20.301C63.69,20.301 63.394,20.368 63.142,20.503C62.896,20.638 62.69,20.825 62.526,21.065C62.368,21.3 62.248,21.575 62.166,21.892C62.084,22.208 62.043,22.548 62.043,22.911ZM74.682,18.49L74.682,20.283L69.144,20.283L69.144,18.49L74.682,18.49ZM70.516,16.144L73.047,16.144L73.047,25.135C73.047,25.41 73.082,25.621 73.152,25.768C73.229,25.914 73.34,26.017 73.486,26.075C73.633,26.128 73.817,26.154 74.04,26.154C74.198,26.154 74.339,26.148 74.462,26.137C74.591,26.119 74.699,26.102 74.787,26.084L74.796,27.947C74.579,28.018 74.345,28.073 74.093,28.114C73.841,28.155 73.563,28.176 73.258,28.176C72.701,28.176 72.215,28.085 71.799,27.903C71.389,27.716 71.072,27.417 70.85,27.007C70.627,26.597 70.516,26.058 70.516,25.39L70.516,16.144ZM78.593,14.5L78.593,28L76.062,28L76.062,14.5L78.593,14.5ZM78.232,22.911L77.538,22.911C77.544,22.249 77.632,21.64 77.802,21.083C77.972,20.52 78.215,20.034 78.531,19.624C78.848,19.208 79.226,18.886 79.665,18.657C80.11,18.429 80.603,18.315 81.142,18.315C81.61,18.315 82.035,18.382 82.416,18.517C82.803,18.645 83.134,18.856 83.409,19.149C83.69,19.437 83.907,19.815 84.06,20.283C84.212,20.752 84.288,21.32 84.288,21.988L84.288,28L81.739,28L81.739,21.971C81.739,21.549 81.678,21.218 81.555,20.978C81.438,20.731 81.265,20.559 81.036,20.459C80.814,20.354 80.538,20.301 80.21,20.301C79.847,20.301 79.536,20.368 79.278,20.503C79.026,20.638 78.824,20.825 78.672,21.065C78.519,21.3 78.408,21.575 78.338,21.892C78.268,22.208 78.232,22.548 78.232,22.911ZM91.346,25.856L91.346,21.619C91.346,21.315 91.296,21.054 91.196,20.837C91.097,20.614 90.941,20.441 90.731,20.318C90.525,20.195 90.259,20.134 89.931,20.134C89.649,20.134 89.406,20.184 89.201,20.283C88.996,20.377 88.838,20.515 88.727,20.696C88.615,20.872 88.56,21.08 88.56,21.32L86.028,21.32C86.028,20.916 86.122,20.532 86.31,20.169C86.497,19.806 86.769,19.486 87.127,19.211C87.484,18.93 87.909,18.71 88.401,18.552C88.899,18.394 89.456,18.315 90.071,18.315C90.81,18.315 91.466,18.438 92.04,18.684C92.614,18.93 93.065,19.299 93.394,19.791C93.728,20.283 93.894,20.898 93.894,21.637L93.894,25.706C93.894,26.228 93.927,26.655 93.991,26.989C94.056,27.317 94.149,27.605 94.272,27.851L94.272,28L91.715,28C91.592,27.742 91.498,27.42 91.434,27.033C91.375,26.641 91.346,26.248 91.346,25.856ZM91.68,22.208L91.697,23.641L90.282,23.641C89.948,23.641 89.658,23.679 89.412,23.755C89.166,23.831 88.964,23.94 88.806,24.08C88.647,24.215 88.53,24.373 88.454,24.555C88.384,24.736 88.349,24.936 88.349,25.152C88.349,25.369 88.398,25.565 88.498,25.741C88.598,25.911 88.741,26.046 88.929,26.145C89.116,26.239 89.336,26.286 89.588,26.286C89.969,26.286 90.3,26.21 90.581,26.058C90.862,25.905 91.079,25.718 91.231,25.495C91.39,25.273 91.472,25.062 91.478,24.862L92.146,25.935C92.052,26.175 91.923,26.424 91.759,26.682C91.601,26.94 91.398,27.183 91.152,27.411C90.906,27.634 90.61,27.818 90.265,27.965C89.919,28.106 89.509,28.176 89.034,28.176C88.431,28.176 87.883,28.056 87.391,27.815C86.904,27.569 86.518,27.232 86.231,26.805C85.949,26.371 85.809,25.879 85.809,25.328C85.809,24.83 85.902,24.388 86.09,24.001C86.277,23.614 86.553,23.289 86.916,23.025C87.285,22.756 87.745,22.554 88.296,22.419C88.847,22.278 89.485,22.208 90.212,22.208L91.68,22.208ZM105.663,24.071L105.663,15.203L108.291,15.203L108.291,24.071C108.291,24.927 108.104,25.662 107.729,26.277C107.354,26.887 106.841,27.356 106.19,27.684C105.546,28.012 104.819,28.176 104.011,28.176C103.173,28.176 102.432,28.035 101.787,27.754C101.143,27.473 100.636,27.042 100.267,26.462C99.897,25.876 99.713,25.135 99.713,24.238L102.358,24.238C102.358,24.707 102.423,25.079 102.552,25.355C102.687,25.63 102.877,25.826 103.123,25.943C103.369,26.061 103.665,26.119 104.011,26.119C104.345,26.119 104.635,26.04 104.881,25.882C105.127,25.724 105.317,25.492 105.452,25.188C105.593,24.883 105.663,24.511 105.663,24.071ZM109.979,23.342L109.979,23.157C109.979,22.46 110.078,21.818 110.277,21.232C110.477,20.641 110.767,20.128 111.147,19.694C111.528,19.261 111.997,18.924 112.554,18.684C113.11,18.438 113.749,18.315 114.47,18.315C115.19,18.315 115.832,18.438 116.395,18.684C116.957,18.924 117.429,19.261 117.81,19.694C118.196,20.128 118.489,20.641 118.688,21.232C118.888,21.818 118.987,22.46 118.987,23.157L118.987,23.342C118.987,24.033 118.888,24.675 118.688,25.267C118.489,25.853 118.196,26.365 117.81,26.805C117.429,27.238 116.96,27.575 116.403,27.815C115.847,28.056 115.208,28.176 114.487,28.176C113.767,28.176 113.125,28.056 112.562,27.815C112.006,27.575 111.534,27.238 111.147,26.805C110.767,26.365 110.477,25.853 110.277,25.267C110.078,24.675 109.979,24.033 109.979,23.342ZM112.51,23.157L112.51,23.342C112.51,23.74 112.545,24.112 112.615,24.458C112.686,24.804 112.797,25.108 112.949,25.372C113.107,25.63 113.312,25.832 113.564,25.979C113.816,26.125 114.124,26.198 114.487,26.198C114.839,26.198 115.141,26.125 115.393,25.979C115.645,25.832 115.847,25.63 115.999,25.372C116.151,25.108 116.263,24.804 116.333,24.458C116.409,24.112 116.447,23.74 116.447,23.342L116.447,23.157C116.447,22.77 116.409,22.407 116.333,22.067C116.263,21.722 116.148,21.417 115.99,21.153C115.838,20.884 115.636,20.673 115.384,20.52C115.132,20.368 114.827,20.292 114.47,20.292C114.112,20.292 113.808,20.368 113.556,20.52C113.31,20.673 113.107,20.884 112.949,21.153C112.797,21.417 112.686,21.722 112.615,22.067C112.545,22.407 112.51,22.77 112.51,23.157ZM123.013,14.5L123.013,28L120.481,28L120.481,14.5L123.013,14.5ZM122.652,22.911L121.958,22.911C121.964,22.249 122.052,21.64 122.222,21.083C122.392,20.52 122.635,20.034 122.951,19.624C123.268,19.208 123.646,18.886 124.085,18.657C124.53,18.429 125.022,18.315 125.562,18.315C126.03,18.315 126.455,18.382 126.836,18.517C127.223,18.645 127.554,18.856 127.829,19.149C128.11,19.437 128.327,19.815 128.479,20.283C128.632,20.752 128.708,21.32 128.708,21.988L128.708,28L126.159,28L126.159,21.971C126.159,21.549 126.098,21.218 125.975,20.978C125.857,20.731 125.685,20.559 125.456,20.459C125.233,20.354 124.958,20.301 124.63,20.301C124.267,20.301 123.956,20.368 123.698,20.503C123.446,20.638 123.244,20.825 123.092,21.065C122.939,21.3 122.828,21.575 122.758,21.892C122.688,22.208 122.652,22.548 122.652,22.911ZM133.111,20.52L133.111,28L130.58,28L130.58,18.49L132.953,18.49L133.111,20.52ZM132.742,22.911L132.057,22.911C132.057,22.208 132.147,21.575 132.329,21.013C132.511,20.444 132.766,19.961 133.094,19.563C133.422,19.158 133.812,18.851 134.263,18.64C134.72,18.423 135.229,18.315 135.792,18.315C136.237,18.315 136.645,18.379 137.014,18.508C137.383,18.637 137.699,18.842 137.963,19.123C138.232,19.404 138.438,19.776 138.578,20.239C138.725,20.702 138.798,21.268 138.798,21.936L138.798,28L136.249,28L136.249,21.927C136.249,21.505 136.19,21.177 136.073,20.942C135.956,20.708 135.783,20.544 135.555,20.45C135.332,20.351 135.057,20.301 134.729,20.301C134.389,20.301 134.093,20.368 133.841,20.503C133.595,20.638 133.39,20.825 133.226,21.065C133.067,21.3 132.947,21.575 132.865,21.892C132.783,22.208 132.742,22.548 132.742,22.911ZM145.864,25.372C145.864,25.19 145.812,25.026 145.706,24.88C145.601,24.733 145.404,24.599 145.117,24.476C144.836,24.347 144.429,24.23 143.896,24.124C143.415,24.019 142.967,23.887 142.551,23.729C142.141,23.565 141.783,23.368 141.479,23.14C141.18,22.911 140.945,22.642 140.775,22.331C140.605,22.015 140.521,21.654 140.521,21.25C140.521,20.852 140.605,20.477 140.775,20.125C140.951,19.773 141.2,19.463 141.522,19.193C141.851,18.918 142.249,18.704 142.718,18.552C143.192,18.394 143.726,18.315 144.317,18.315C145.144,18.315 145.853,18.446 146.444,18.71C147.042,18.974 147.499,19.337 147.815,19.8C148.138,20.257 148.299,20.778 148.299,21.364L145.768,21.364C145.768,21.118 145.715,20.898 145.609,20.705C145.51,20.506 145.352,20.351 145.135,20.239C144.924,20.122 144.648,20.064 144.309,20.064C144.027,20.064 143.784,20.113 143.579,20.213C143.374,20.307 143.216,20.436 143.104,20.6C142.999,20.758 142.946,20.934 142.946,21.127C142.946,21.273 142.976,21.405 143.034,21.523C143.099,21.634 143.201,21.736 143.342,21.83C143.482,21.924 143.664,22.012 143.887,22.094C144.115,22.17 144.396,22.24 144.73,22.305C145.416,22.445 146.028,22.63 146.567,22.858C147.106,23.081 147.534,23.386 147.851,23.773C148.167,24.153 148.325,24.654 148.325,25.275C148.325,25.697 148.231,26.084 148.044,26.436C147.856,26.787 147.587,27.095 147.235,27.358C146.884,27.616 146.462,27.818 145.97,27.965C145.483,28.106 144.936,28.176 144.326,28.176C143.441,28.176 142.691,28.018 142.076,27.701C141.467,27.385 141.004,26.983 140.688,26.497C140.377,26.005 140.222,25.501 140.222,24.985L142.621,24.985C142.633,25.331 142.721,25.609 142.885,25.82C143.055,26.031 143.269,26.184 143.526,26.277C143.79,26.371 144.074,26.418 144.379,26.418C144.707,26.418 144.979,26.374 145.196,26.286C145.413,26.192 145.577,26.069 145.688,25.917C145.806,25.759 145.864,25.577 145.864,25.372ZM149.564,23.342L149.564,23.157C149.564,22.46 149.664,21.818 149.863,21.232C150.062,20.641 150.353,20.128 150.733,19.694C151.114,19.261 151.583,18.924 152.14,18.684C152.696,18.438 153.335,18.315 154.056,18.315C154.776,18.315 155.418,18.438 155.98,18.684C156.543,18.924 157.015,19.261 157.396,19.694C157.782,20.128 158.075,20.641 158.274,21.232C158.474,21.818 158.573,22.46 158.573,23.157L158.573,23.342C158.573,24.033 158.474,24.675 158.274,25.267C158.075,25.853 157.782,26.365 157.396,26.805C157.015,27.238 156.546,27.575 155.989,27.815C155.433,28.056 154.794,28.176 154.073,28.176C153.353,28.176 152.711,28.056 152.148,27.815C151.592,27.575 151.12,27.238 150.733,26.805C150.353,26.365 150.062,25.853 149.863,25.267C149.664,24.675 149.564,24.033 149.564,23.342ZM152.096,23.157L152.096,23.342C152.096,23.74 152.131,24.112 152.201,24.458C152.271,24.804 152.383,25.108 152.535,25.372C152.693,25.63 152.898,25.832 153.15,25.979C153.402,26.125 153.71,26.198 154.073,26.198C154.425,26.198 154.727,26.125 154.979,25.979C155.23,25.832 155.433,25.63 155.585,25.372C155.737,25.108 155.849,24.804 155.919,24.458C155.995,24.112 156.033,23.74 156.033,23.342L156.033,23.157C156.033,22.77 155.995,22.407 155.919,22.067C155.849,21.722 155.734,21.417 155.576,21.153C155.424,20.884 155.222,20.673 154.97,20.52C154.718,20.368 154.413,20.292 154.056,20.292C153.698,20.292 153.394,20.368 153.142,20.52C152.896,20.673 152.693,20.884 152.535,21.153C152.383,21.417 152.271,21.722 152.201,22.067C152.131,22.407 152.096,22.77 152.096,23.157ZM162.607,20.52L162.607,28L160.076,28L160.076,18.49L162.449,18.49L162.607,20.52ZM162.238,22.911L161.553,22.911C161.553,22.208 161.644,21.575 161.825,21.013C162.007,20.444 162.262,19.961 162.59,19.563C162.918,19.158 163.308,18.851 163.759,18.64C164.216,18.423 164.726,18.315 165.288,18.315C165.733,18.315 166.141,18.379 166.51,18.508C166.879,18.637 167.195,18.842 167.459,19.123C167.729,19.404 167.934,19.776 168.074,20.239C168.221,20.702 168.294,21.268 168.294,21.936L168.294,28L165.745,28L165.745,21.927C165.745,21.505 165.687,21.177 165.569,20.942C165.452,20.708 165.279,20.544 165.051,20.45C164.828,20.351 164.553,20.301 164.225,20.301C163.885,20.301 163.589,20.368 163.337,20.503C163.091,20.638 162.886,20.825 162.722,21.065C162.563,21.3 162.443,21.575 162.361,21.892C162.279,22.208 162.238,22.548 162.238,22.911Z" style="fill-rule:nonzero;"/>
    <path d="M14.016,41.625L18.258,41.625C19.128,41.625 19.875,41.755 20.5,42.016C21.13,42.276 21.615,42.661 21.953,43.172C22.292,43.682 22.461,44.31 22.461,45.055C22.461,45.664 22.357,46.188 22.148,46.625C21.945,47.057 21.656,47.419 21.281,47.711C20.912,47.997 20.477,48.227 19.977,48.398L19.234,48.789L15.547,48.789L15.531,46.961L18.273,46.961C18.685,46.961 19.026,46.888 19.297,46.742C19.568,46.596 19.771,46.393 19.906,46.133C20.047,45.872 20.117,45.57 20.117,45.227C20.117,44.862 20.049,44.547 19.914,44.281C19.779,44.016 19.573,43.813 19.297,43.672C19.021,43.531 18.674,43.461 18.258,43.461L16.359,43.461L16.359,53L14.016,53L14.016,41.625ZM20.375,53L17.781,47.93L20.258,47.914L22.883,52.891L22.883,53L20.375,53ZM23.766,48.859L23.766,48.695C23.766,48.076 23.854,47.505 24.031,46.984C24.208,46.458 24.466,46.003 24.805,45.617C25.143,45.232 25.56,44.932 26.055,44.719C26.549,44.5 27.117,44.391 27.758,44.391C28.398,44.391 28.969,44.5 29.469,44.719C29.969,44.932 30.388,45.232 30.727,45.617C31.07,46.003 31.331,46.458 31.508,46.984C31.685,47.505 31.773,48.076 31.773,48.695L31.773,48.859C31.773,49.474 31.685,50.044 31.508,50.57C31.331,51.091 31.07,51.547 30.727,51.938C30.388,52.323 29.971,52.622 29.477,52.836C28.982,53.05 28.414,53.156 27.773,53.156C27.133,53.156 26.563,53.05 26.063,52.836C25.568,52.622 25.148,52.323 24.805,51.938C24.466,51.547 24.208,51.091 24.031,50.57C23.854,50.044 23.766,49.474 23.766,48.859ZM26.016,48.695L26.016,48.859C26.016,49.214 26.047,49.544 26.109,49.852C26.172,50.159 26.271,50.43 26.406,50.664C26.547,50.893 26.729,51.073 26.953,51.203C27.177,51.333 27.451,51.398 27.773,51.398C28.086,51.398 28.354,51.333 28.578,51.203C28.802,51.073 28.982,50.893 29.117,50.664C29.253,50.43 29.352,50.159 29.414,49.852C29.482,49.544 29.516,49.214 29.516,48.859L29.516,48.695C29.516,48.352 29.482,48.029 29.414,47.727C29.352,47.419 29.25,47.148 29.109,46.914C28.974,46.675 28.794,46.487 28.57,46.352C28.346,46.216 28.076,46.148 27.758,46.148C27.44,46.148 27.169,46.216 26.945,46.352C26.727,46.487 26.547,46.675 26.406,46.914C26.271,47.148 26.172,47.419 26.109,47.727C26.047,48.029 26.016,48.352 26.016,48.695ZM32.797,48.859L32.797,48.695C32.797,48.076 32.885,47.505 33.063,46.984C33.24,46.458 33.497,46.003 33.836,45.617C34.175,45.232 34.591,44.932 35.086,44.719C35.581,44.5 36.148,44.391 36.789,44.391C37.43,44.391 38,44.5 38.5,44.719C39,44.932 39.419,45.232 39.758,45.617C40.102,46.003 40.362,46.458 40.539,46.984C40.716,47.505 40.805,48.076 40.805,48.695L40.805,48.859C40.805,49.474 40.716,50.044 40.539,50.57C40.362,51.091 40.102,51.547 39.758,51.938C39.419,52.323 39.003,52.622 38.508,52.836C38.013,53.05 37.445,53.156 36.805,53.156C36.164,53.156 35.594,53.05 35.094,52.836C34.599,52.622 34.18,52.323 33.836,51.938C33.497,51.547 33.24,51.091 33.063,50.57C32.885,50.044 32.797,49.474 32.797,48.859ZM35.047,48.695L35.047,48.859C35.047,49.214 35.078,49.544 35.141,49.852C35.203,50.159 35.302,50.43 35.438,50.664C35.578,50.893 35.76,51.073 35.984,51.203C36.208,51.333 36.482,51.398 36.805,51.398C37.117,51.398 37.385,51.333 37.609,51.203C37.833,51.073 38.013,50.893 38.148,50.664C38.284,50.43 38.383,50.159 38.445,49.852C38.513,49.544 38.547,49.214 38.547,48.859L38.547,48.695C38.547,48.352 38.513,48.029 38.445,47.727C38.383,47.419 38.281,47.148 38.141,46.914C38.005,46.675 37.826,46.487 37.602,46.352C37.378,46.216 37.107,46.148 36.789,46.148C36.471,46.148 36.201,46.216 35.977,46.352C35.758,46.487 35.578,46.675 35.438,46.914C35.302,47.148 35.203,47.419 35.141,47.727C35.078,48.029 35.047,48.352 35.047,48.695ZM46.328,44.547L46.328,46.141L41.406,46.141L41.406,44.547L46.328,44.547ZM42.625,42.461L44.875,42.461L44.875,50.453C44.875,50.698 44.906,50.885 44.969,51.016C45.036,51.146 45.135,51.237 45.266,51.289C45.396,51.336 45.56,51.359 45.758,51.359C45.898,51.359 46.023,51.354 46.133,51.344C46.247,51.328 46.344,51.313 46.422,51.297L46.43,52.953C46.237,53.016 46.029,53.065 45.805,53.102C45.581,53.138 45.333,53.156 45.063,53.156C44.568,53.156 44.135,53.076 43.766,52.914C43.401,52.747 43.12,52.482 42.922,52.117C42.724,51.753 42.625,51.273 42.625,50.68L42.625,42.461ZM58.328,49.227L60.664,49.227C60.617,49.992 60.406,50.672 60.031,51.266C59.661,51.859 59.143,52.323 58.477,52.656C57.815,52.99 57.018,53.156 56.086,53.156C55.357,53.156 54.703,53.031 54.125,52.781C53.547,52.526 53.052,52.161 52.641,51.688C52.234,51.214 51.925,50.641 51.711,49.969C51.497,49.297 51.391,48.544 51.391,47.711L51.391,46.922C51.391,46.089 51.5,45.336 51.719,44.664C51.943,43.987 52.26,43.411 52.672,42.938C53.089,42.464 53.586,42.099 54.164,41.844C54.742,41.589 55.388,41.461 56.102,41.461C57.05,41.461 57.849,41.633 58.5,41.977C59.156,42.32 59.664,42.794 60.023,43.398C60.388,44.003 60.607,44.69 60.68,45.461L58.336,45.461C58.31,45.003 58.219,44.615 58.063,44.297C57.906,43.974 57.669,43.732 57.352,43.57C57.039,43.404 56.622,43.32 56.102,43.32C55.711,43.32 55.37,43.393 55.078,43.539C54.786,43.685 54.542,43.906 54.344,44.203C54.146,44.5 53.997,44.875 53.898,45.328C53.805,45.776 53.758,46.302 53.758,46.906L53.758,47.711C53.758,48.3 53.802,48.818 53.891,49.266C53.979,49.708 54.115,50.083 54.297,50.391C54.484,50.693 54.724,50.922 55.016,51.078C55.313,51.229 55.669,51.305 56.086,51.305C56.576,51.305 56.979,51.227 57.297,51.07C57.615,50.914 57.857,50.682 58.023,50.375C58.195,50.068 58.297,49.685 58.328,49.227ZM66.625,51.094L66.625,47.328C66.625,47.057 66.581,46.826 66.492,46.633C66.404,46.435 66.266,46.281 66.078,46.172C65.896,46.063 65.659,46.008 65.367,46.008C65.117,46.008 64.901,46.052 64.719,46.141C64.537,46.224 64.396,46.346 64.297,46.508C64.198,46.664 64.148,46.849 64.148,47.063L61.898,47.063C61.898,46.703 61.982,46.362 62.148,46.039C62.315,45.716 62.557,45.432 62.875,45.188C63.193,44.938 63.57,44.742 64.008,44.602C64.451,44.461 64.945,44.391 65.492,44.391C66.148,44.391 66.732,44.5 67.242,44.719C67.753,44.938 68.154,45.266 68.445,45.703C68.742,46.141 68.891,46.688 68.891,47.344L68.891,50.961C68.891,51.425 68.919,51.805 68.977,52.102C69.034,52.393 69.117,52.648 69.227,52.867L69.227,53L66.953,53C66.844,52.771 66.76,52.484 66.703,52.141C66.651,51.792 66.625,51.443 66.625,51.094ZM66.922,47.852L66.938,49.125L65.68,49.125C65.383,49.125 65.125,49.159 64.906,49.227C64.688,49.294 64.508,49.391 64.367,49.516C64.227,49.635 64.122,49.776 64.055,49.938C63.992,50.099 63.961,50.276 63.961,50.469C63.961,50.661 64.005,50.836 64.094,50.992C64.182,51.143 64.31,51.263 64.477,51.352C64.643,51.435 64.838,51.477 65.063,51.477C65.401,51.477 65.695,51.409 65.945,51.273C66.195,51.138 66.388,50.971 66.523,50.773C66.664,50.576 66.737,50.388 66.742,50.211L67.336,51.164C67.253,51.378 67.138,51.599 66.992,51.828C66.852,52.057 66.672,52.273 66.453,52.477C66.234,52.675 65.971,52.839 65.664,52.969C65.357,53.094 64.992,53.156 64.57,53.156C64.034,53.156 63.547,53.05 63.109,52.836C62.677,52.617 62.333,52.318 62.078,51.938C61.828,51.552 61.703,51.115 61.703,50.625C61.703,50.182 61.786,49.789 61.953,49.445C62.12,49.102 62.365,48.813 62.688,48.578C63.016,48.339 63.425,48.159 63.914,48.039C64.404,47.914 64.971,47.852 65.617,47.852L66.922,47.852ZM72.828,46.352L72.828,53L70.578,53L70.578,44.547L72.688,44.547L72.828,46.352ZM72.5,48.477L71.891,48.477C71.891,47.852 71.971,47.289 72.133,46.789C72.294,46.284 72.521,45.854 72.813,45.5C73.104,45.141 73.451,44.867 73.852,44.68C74.258,44.487 74.711,44.391 75.211,44.391C75.607,44.391 75.969,44.448 76.297,44.563C76.625,44.677 76.906,44.859 77.141,45.109C77.38,45.359 77.563,45.69 77.688,46.102C77.818,46.513 77.883,47.016 77.883,47.609L77.883,53L75.617,53L75.617,47.602C75.617,47.227 75.565,46.935 75.461,46.727C75.357,46.518 75.203,46.372 75,46.289C74.802,46.201 74.557,46.156 74.266,46.156C73.964,46.156 73.701,46.216 73.477,46.336C73.258,46.456 73.076,46.622 72.93,46.836C72.789,47.044 72.682,47.289 72.609,47.57C72.537,47.852 72.5,48.154 72.5,48.477ZM84.156,51.094L84.156,47.328C84.156,47.057 84.112,46.826 84.023,46.633C83.935,46.435 83.797,46.281 83.609,46.172C83.427,46.063 83.19,46.008 82.898,46.008C82.648,46.008 82.432,46.052 82.25,46.141C82.068,46.224 81.927,46.346 81.828,46.508C81.729,46.664 81.68,46.849 81.68,47.063L79.43,47.063C79.43,46.703 79.513,46.362 79.68,46.039C79.846,45.716 80.089,45.432 80.406,45.188C80.724,44.938 81.102,44.742 81.539,44.602C81.982,44.461 82.477,44.391 83.023,44.391C83.68,44.391 84.263,44.5 84.773,44.719C85.284,44.938 85.685,45.266 85.977,45.703C86.273,46.141 86.422,46.688 86.422,47.344L86.422,50.961C86.422,51.425 86.451,51.805 86.508,52.102C86.565,52.393 86.648,52.648 86.758,52.867L86.758,53L84.484,53C84.375,52.771 84.292,52.484 84.234,52.141C84.182,51.792 84.156,51.443 84.156,51.094ZM84.453,47.852L84.469,49.125L83.211,49.125C82.914,49.125 82.656,49.159 82.438,49.227C82.219,49.294 82.039,49.391 81.898,49.516C81.758,49.635 81.654,49.776 81.586,49.938C81.523,50.099 81.492,50.276 81.492,50.469C81.492,50.661 81.537,50.836 81.625,50.992C81.714,51.143 81.841,51.263 82.008,51.352C82.175,51.435 82.37,51.477 82.594,51.477C82.932,51.477 83.227,51.409 83.477,51.273C83.727,51.138 83.919,50.971 84.055,50.773C84.195,50.576 84.268,50.388 84.273,50.211L84.867,51.164C84.784,51.378 84.669,51.599 84.523,51.828C84.383,52.057 84.203,52.273 83.984,52.477C83.766,52.675 83.503,52.839 83.195,52.969C82.888,53.094 82.523,53.156 82.102,53.156C81.565,53.156 81.078,53.05 80.641,52.836C80.208,52.617 79.865,52.318 79.609,51.938C79.359,51.552 79.234,51.115 79.234,50.625C79.234,50.182 79.318,49.789 79.484,49.445C79.651,49.102 79.896,48.813 80.219,48.578C80.547,48.339 80.956,48.159 81.445,48.039C81.935,47.914 82.503,47.852 83.148,47.852L84.453,47.852ZM90.531,41L90.531,53L88.273,53L88.273,41L90.531,41Z" style="fill:rgb(82,82,82);fill-rule:nonzero;"/>
    <g transform="matrix(1,0,0,1,10,4)">
        <text x="230.073px" y="25.064px" style="font-family:'ArialRoundedMTBold', 'Arial Rounded MT Bold', sans-serif;font-size:20px;">11:11</text>
    </g>
    <g transform="matrix(1,0,0,1,10,81)">
        <text x="230.073px" y="25.064px" style="font-family:'ArialRoundedMTBold', 'Arial Rounded MT Bold', sans-serif;font-size:20px;">12:12</text>
    </g>
    <g transform="matrix(1,0,0,1,17.3535,158)">
        <text x="230.073px" y="25.064px" style="font-family:'ArialRoundedMTBold', 'Arial Rounded MT Bold', sans-serif;font-size:20px;">1:11</text>
    </g>
</svg>
