<?xml version="1.0" encoding="UTF-8" standalone="no"?>
<!DOCTYPE svg PUBLIC "-//W3C//DTD SVG 1.1//EN" "http://www.w3.org/Graphics/SVG/1.1/DTD/svg11.dtd">
<svg width="100%" height="100%" viewBox="0 0 2763 512" version="1.1" xmlns="http://www.w3.org/2000/svg" xmlns:xlink="http://www.w3.org/1999/xlink" xml:space="preserve" xmlns:serif="http://www.serif.com/" style="fill-rule:evenodd;clip-rule:evenodd;">
    <path d="M499.5,90C499.5,47.227 464.773,12.5 422,12.5L90,12.5C47.227,12.5 12.5,47.227 12.5,90L12.5,422C12.5,464.773 47.227,499.5 90,499.5L422,499.5C464.773,499.5 499.5,464.773 499.5,422L499.5,90Z" style="fill:rgb(59,130,246);stroke:black;stroke-width:25px;"/>
    <path d="M445.5,153C445.5,126.784 424.216,105.5 398,105.5L153,105.5C126.784,105.5 105.5,126.784 105.5,153L105.5,398C105.5,424.216 126.784,445.5 153,445.5L398,445.5C424.216,445.5 445.5,424.216 445.5,398L445.5,153Z" style="stroke:black;stroke-width:25px;"/>
    <path d="M405.5,113C405.5,86.784 384.216,65.5 358,65.5L113,65.5C86.784,65.5 65.5,86.784 65.5,113L65.5,358C65.5,384.216 86.784,405.5 113,405.5L358,405.5C384.216,405.5 405.5,384.216 405.5,358L405.5,113Z" style="fill:white;stroke:black;stroke-width:25px;"/>
    <path d="M235,151.667L235,318.333M318.333,235L151.667,235" style="fill:none;fill-rule:nonzero;stroke:black;stroke-width:40px;stroke-linecap:round;stroke-linejoin:round;"/>
    <g transform="matrix(0.923937,0,0,0.923937,5.12976,118.986)">
        <text x="599.856px" y="205.799px" style="font-family:'ArialRoundedMTBold', 'Arial Rounded MT Bold', sans-serif;font-size:222px;">V<tspan x="749.663px 809.824px 901.529px 1033.45px " y="205.799px 205.799px 205.799px 205.799px ">iral</tspan>Dental.Mar<tspan x="2272.66px 2391.47px 2523.39px " y="205.799px 205.799px 205.799px ">ket</tspan>ing</text>
    </g>
</svg>
