<?xml version="1.0" encoding="UTF-8" standalone="no"?>
<!DOCTYPE svg PUBLIC "-//W3C//DTD SVG 1.1//EN" "http://www.w3.org/Graphics/SVG/1.1/DTD/svg11.dtd">
<svg width="100%" height="100%" viewBox="0 0 2869 512" version="1.1" xmlns="http://www.w3.org/2000/svg" xmlns:xlink="http://www.w3.org/1999/xlink" xml:space="preserve" xmlns:serif="http://www.serif.com/" style="fill-rule:evenodd;clip-rule:evenodd;">
    <path d="M492,111C492,88.923 474.077,71 452,71L111,71C88.923,71 71,88.923 71,111L71,452C71,474.077 88.923,492 111,492L452,492C474.077,492 492,474.077 492,452L492,111Z" style="stroke:black;stroke-width:40px;"/>
    <path d="M441,60C441,37.923 423.077,20 401,20L60,20C37.923,20 20,37.923 20,60L20,401C20,423.077 37.923,441 60,441L401,441C423.077,441 441,423.077 441,401L441,60Z" style="fill:white;stroke:black;stroke-width:40px;"/>
    <path d="M230,124.667L230,335.333M335.333,230L124.667,230" style="fill:none;fill-rule:nonzero;stroke:black;stroke-width:55px;stroke-linecap:round;stroke-linejoin:round;"/>
    <g transform="matrix(0.923937,0,0,0.923937,5.12976,118.986)">
        <text x="599.856px" y="205.799px" style="font-family:'ArialRoundedMTBold', 'Arial Rounded MT Bold', sans-serif;font-size:222px;">V<tspan x="749.663px 809.824px 901.529px 1033.45px " y="205.799px 205.799px 205.799px 205.799px ">iral</tspan>Dental.Mar<tspan x="2272.66px 2391.47px 2523.39px " y="205.799px 205.799px 205.799px ">ket</tspan>ing</text>
    </g>
</svg>
